<svg xmlns="http://www.w3.org/2000/svg" width="33.759" height="33.759" viewBox="0 0 33.759 33.759">
  <g id="noun-account-5588103" transform="translate(-3 -3)">
    <path id="Tracciato_1" data-name="Tracciato 1" d="M8.748,32.565a16.868,16.868,0,1,1,11.131,4.194A16.84,16.84,0,0,1,8.748,32.565Zm22.307-3.8a14.283,14.283,0,1,0-22.347,0,9.322,9.322,0,0,1,3.782-5.5l.212-.127a1.3,1.3,0,0,1,1.43.065,9.793,9.793,0,0,0,11.5,0,1.3,1.3,0,0,1,1.422-.069l.219.131a8.711,8.711,0,0,1,2.642,2.738,8.182,8.182,0,0,1,1.14,2.762Zm-20.07,2.281a14.27,14.27,0,0,0,17.792,0c-.074-.538-.164-1.121-.269-1.759a5.369,5.369,0,0,0-.792-1.9,6.784,6.784,0,0,0-1.328-1.566,12.4,12.4,0,0,1-13.015,0,6.4,6.4,0,0,0-2.119,3.465c-.105.64-.195,1.223-.269,1.762Zm8.9-22.857a7.08,7.08,0,1,1-7.08,7.079,7.082,7.082,0,0,1,7.08-7.079Zm0,2.6a4.483,4.483,0,1,0,4.482,4.482A4.485,4.485,0,0,0,19.882,10.79Z" fill-rule="evenodd"/>
  </g>
</svg>
