<svg xmlns="http://www.w3.org/2000/svg" width="34.759" height="34.759" viewBox="0 0 34.759 34.759">
  <g id="noun-account-2049214" transform="translate(0.5 0.5)">
    <g id="Raggruppa_1" data-name="Raggruppa 1">
      <path id="Tracciato_2" data-name="Tracciato 2" d="M151.2,117a5.327,5.327,0,0,1,5.28,5.28,5.258,5.258,0,0,1-5.28,5.2,5.189,5.189,0,0,1-5.2-5.2A5.258,5.258,0,0,1,151.2,117Zm0,1.52a3.72,3.72,0,1,0,3.76,3.76A3.739,3.739,0,0,0,151.2,118.52Z" transform="translate(-134.32 -107.64)" stroke="#000" stroke-width="1"/>
      <path id="Tracciato_3" data-name="Tracciato 3" d="M16.879,0a17.065,17.065,0,0,1,12,4.96,16.807,16.807,0,0,1,4.88,11.92,17,17,0,0,1-4.88,12,17,17,0,0,1-12,4.88,16.807,16.807,0,0,1-11.92-4.88,17.065,17.065,0,0,1-4.96-12A16.934,16.934,0,0,1,16.879,0ZM12.8,20.559h8.24a8.357,8.357,0,0,1,7.92,5.84,15.085,15.085,0,0,0,3.28-9.52A15.293,15.293,0,0,0,27.759,6,15.451,15.451,0,0,0,6,6a15.633,15.633,0,0,0-4.48,10.88A15.148,15.148,0,0,0,4.88,26.4,8.209,8.209,0,0,1,12.8,20.559Zm14.879,7.28a6.719,6.719,0,0,0-6.64-5.76H12.8a6.74,6.74,0,0,0-6.72,5.76,15.516,15.516,0,0,0,10.8,4.4A15.23,15.23,0,0,0,27.679,27.839Z" stroke="#000" stroke-width="1"/>
    </g>
  </g>
</svg>
