<?xml version="1.0" encoding="utf-8"?>
<!-- Generator: Adobe Illustrator 27.5.0, SVG Export Plug-In . SVG Version: 6.00 Build 0)  -->
<svg version="1.1" id="Livello_1" xmlns="http://www.w3.org/2000/svg" xmlns:xlink="http://www.w3.org/1999/xlink" x="0px" y="0px"
	 viewBox="0 0 1385 687.8" style="enable-background:new 0 0 1385 687.8;" xml:space="preserve">
<style type="text/css">
	.st0{stroke:#000000;stroke-width:5;stroke-miterlimit:10;}
	.st1{stroke:#000000;stroke-width:3;stroke-miterlimit:10;}
</style>
<path class="st0" d="M859.5,652.3c-39,0.5-77.9,1.4-116.9,1.3c-15.4,0-30.8-2.8-46.3-3.3c-20.5-0.6-41-0.8-61.5,0.1
	c-65.6,2.9-131.1,3-196.7,1.6c-19.3-0.4-38.6-0.9-58-0.7c-18.3,0.3-36.5,2.2-54.8,2.1c-16.6-0.1-33.2-2-49.8-3.2
	c-16.9-1.2-33.9-2-50.7-3.9c-47.1-5.2-94.4-9-141.3-16.8c-8-1.3-16.2-2.1-24.3-2.9c-9.5-0.9-17.7-4.7-25.4-10.1
	c-8.9-6.3-15.8-14.4-21.9-23.3c-4.9-7.3-6.1-15.8-6.5-24.3C3.7,530.3,7.9,492.3,21,455.5c2.5-7.1,5.7-14.1,9.3-20.7
	c4.8-8.7,7.1-17.9,7.1-27.7c0.1-25.3,3.1-50.1,10.2-74.4c2.4-8.4,3.5-17.2,4.4-25.9c0.8-7.7,0.8-15.5,0.5-23.2
	c-0.5-12.7,1.9-24.8,6.3-36.7c7.6-20.5,18.3-39.3,29.4-58c6.7-11.3,14.9-20.7,25.5-28.1c14.7-10.4,30.3-12.3,46.5-3.7
	C186.6,171,212.8,185,239,199c29.3,15.7,60.4,26.8,93,32.9c22.1,4.1,44.4,2.7,66.7,0.4c24-2.5,47.7-6.5,70.9-13.3
	c2.5-0.7,3.5-1.8,3.8-4.5c1.7-16.7,3.8-33.4,9.2-49.4c3.5-10.3,8.7-19.5,15.6-27.8c7.9-9.5,17.6-14.1,29.5-9.2
	c10.5,4.3,20.7,9.6,30.6,15.2c4.7,2.6,8.4,3.2,13.5,1.6c12.5-3.7,25.1-7.6,38-9.4c26.2-3.6,50.2,3.4,71.7,18.6
	c13.8,9.8,27,20.5,40.4,30.8c23.1,17.7,48.8,30.8,76.3,40c20.2,6.7,38.9,16.2,57,27.1c18.1,10.9,37.1,19.1,57.6,24.2
	c15.6,3.9,30.9,9.7,46,15.5c18.9,7.2,37.6,14.8,58.2,15.8c17,0.8,32.3,7.3,46.8,16c6.1,3.6,12.6,6.6,19,9.8
	c12.5,6.2,25.1,12.3,37.5,18.6c17.6,8.9,35.4,17.1,55.1,19.8c29.7,4.2,59.4,9.3,89.2,11.3c56.8,3.7,97.6,52.7,107,95.2
	c2.9,13,6.1,26.1,7.8,39.3c1.5,11.7-1.4,22.7-9,32.4c-9.9,12.7-23.2,20.8-37.1,27.8c-8.8,4.5-18.1,8.4-27.6,11.3
	c-29.4,8.9-58.1,20.3-88.6,25.2c-27.3,4.3-54.7,7.7-82,11.9c-26.6,4.1-53.1,8.5-79.6,13.1c-34.2,6-68.4,10-103.2,10.3
	c-30.9,0.2-61.8,2.2-92.7,3.4C859.5,652.6,859.5,652.5,859.5,652.3z M1336.3,445.8c-1.3,0.6-2.5,1.1-3.7,1.8
	c-32.3,17.2-66.4,29.9-101.8,38.8c-45.9,11.5-92.4,19.9-139.5,24.5c-26.9,2.6-53.9,5.3-80.9,6.3c-32.7,1.2-65.4,0.2-98.1,0.9
	c-112.1,2.7-224,0.2-335.9-6c-31.2-1.7-62.2-4.9-93.4-7.1c-30.1-2.1-60.2-3.4-90.2-5.6c-18.6-1.3-37.2-3.3-55.8-5.6
	c-23.2-2.9-46.3-6.8-69.5-9.5c-24.6-2.9-49.4-4.6-74.1-7.3c-34.7-3.8-69.4-7.7-104.1-12.1c-17-2.1-33.6-5.9-47.9-15.9
	c-0.5,0.5-0.7,0.7-0.8,1c-0.5,1.1-0.9,2.2-1.4,3.3C24.9,487.5,20.9,523.6,23.1,560c1.6,27,16,43.7,39.3,48.1
	c14.6,2.8,29.3,4.7,44.1,6.6c21.8,2.8,43.7,5.6,65.6,7.7c27.8,2.7,55.7,4.7,83.6,6.8c27.9,2.1,55.7,4.3,83.7,5.7
	c19.7,1,39.6,0.9,59.3,0.8c66.8-0.3,133.6-1.1,200.4-1.3c61-0.1,122,0.1,182.9,0.6c55.9,0.4,111.8-1.1,167.7-3.8
	c20.4-1,40.5-3.6,60.6-6.8c40.9-6.6,81.8-13.9,122.7-20.8c49.8-8.4,99.8-16.2,148.5-30.2c25-7.2,49.2-15.9,70.6-31.2
	c3.9-2.8,6.1-6.5,6.9-11c0.8-4.5,1.3-9.2,1.2-13.7c-0.4-25-8.3-47.8-21.5-68.8C1337.9,447.8,1337.1,446.9,1336.3,445.8z M1133,378.8
	c-5.5,4.5-9.2,8.2-13.6,11c-3.7,2.3-8,3.9-12.2,5.2c-14.9,4.7-30.3,5.7-45.8,6.2c-37.5,1.2-74.1-5.6-110.5-13.1
	C872.7,372,796.2,350,723,317.7c-65.7-29-132.9-54.2-201.2-76.3c-3.5-1.1-6-0.7-9,1.3c-31.7,21.3-65,39.5-101.7,51
	c-22.4,7-45.2,11.7-68.8,11c-33.4-0.9-65.7-7.9-97.4-18.1c-4.8-1.6-8.5-2.1-12.1,2.2c-1.3,1.5-3.4,2.4-5.2,3.4
	c-13.4,6.9-27.6,11.8-42.4,14.6c-6.2,1.2-12.6,1.9-20.1,2.9c2.9,1.2,4.5,1.8,6.1,2.5c30.5,13,61.1,25.7,91.4,39.1
	c17.5,7.7,33.6,17.9,47.7,30.9c28.3,26,48.9,57.8,66.5,91.5c3.7,7,8.2,9.1,14.9,9.6c0.7,0.1,1.5,0,2.2,0.1c12.4,1.1,24.9,2,37.3,3.3
	c14.7,1.6,29.4,4.4,44.2,5.3c48.5,2.8,97.1,5.2,145.7,7.4c80.3,3.5,160.6,3.4,240.9,3c3.2,0,4.7-1.3,6.2-3.8
	c1.9-3.3,4.1-6.7,6.9-9.2c19.8-17.7,41.1-32.8,67.2-39.9c26.3-7.2,53.2-10,80.3-10.5c50.7-0.9,100.9-6.1,150.8-14.4
	c21.1-3.5,41.5-9.2,60.3-19.8c1.3-0.7,2.6-1.6,4.4-2.8C1201.8,394.5,1164.6,395.8,1133,378.8z M349.8,480.1c0.4-0.5,0.8-1,1.2-1.5
	c-12.2-20.5-23.9-41.4-37-61.4c-5.6-8.5-13.4-16-21.5-22.3c-10.5-8.2-21.7-15.8-33.7-21.6c-25.2-12.2-51-23.5-76.8-34.5
	c-23.1-9.8-47.4-16.6-69.5-28.9c-0.8-0.4-1.7-0.6-2.6-0.7c-13.1-1.9-26.1-3.8-39.4-5.7c-0.1,0.8-0.3,2-0.6,3.1
	c-2.6,13-5.3,25.9-7.6,38.9c-2.1,11.8-4,23.7-5.5,35.6c-1.8,14-2.5,28.1-4.9,42c-1.8,10.6-2.3,11,7.8,15.5c2.6,1.2,5.2,2.3,7.9,3
	c10.8,2.7,21.5,6.2,32.5,7.7c49.5,6.6,99.1,12.7,148.6,18.9c23,2.8,46.1,5.2,69.1,7.9C328.7,477.3,339.3,478.7,349.8,480.1z
	 M530.8,230.6c0.2,0.4,0.3,0.7,0.5,1.1c3,0.8,6.1,1.4,9,2.3c58.2,19.1,116.3,38.2,172.6,62.3c41.3,17.6,82.7,35.1,125.8,47.7
	c55.9,16.4,112.9,28.8,170.2,39.3c27.6,5,55.3,5.8,83,1.9c7.9-1.1,15.3-3.8,23.3-8.5c-3.6-0.6-5.9-1.1-8.2-1.2
	c-20.6-1.5-41.1-4.3-61-10.2c-1.4-0.4-3.2-0.2-4.6,0.3c-6.4,2.2-10.7,0.9-14.8-4.6c-1.3-1.7-3.1-3.2-5-4c-10.2-4.1-20.6-7.8-30.7-12
	c-3.1-1.3-4.9-1-7.1,1.6c-4.4,5.2-9.6,6.5-14.2,4.3c-4.4-2.1-6.8-7-5.9-13.3c0.4-2.8-0.1-4.3-3-5.3c-14.4-5.2-28.7-10.6-43-16.1
	c-2.5-0.9-3.4-0.1-4.5,1.9c-1.7,2.9-3.5,5.9-5.7,8.5c-4.2,5.1-9.4,6.5-14.2,4.4c-4.7-2.1-7.5-7.6-6.6-13.9c0.5-3.5,1.6-6.9,2.4-10.4
	c-11.4-4.4-22.8-8.8-34.2-13c-0.9-0.3-2.8,0.6-3.6,1.5c-2.9,3-5.3,6.4-8.2,9.4c-4.8,5-10.6,5.9-15.3,2.9c-4.5-3-6-8.9-3.3-15.2
	c1.4-3.2,3.3-6.2,5.2-9.7c-10.8-4.8-21.5-9.5-32.1-14.5c-3-1.4-5.3-1.4-8.3,0.1c-6.4,3.2-12.8,6.2-19.5,8.6
	c-5.3,1.9-10.1-0.2-12.6-4.1c-2.4-3.8-1.9-9,1.7-13.2c1.8-2.1,4-3.9,6.6-6.3c-10.2-4.6-19.8-8.8-29.3-13.3c-3-1.4-5.5-1.2-8.4,0
	c-7.1,3-14.2,6-21.6,8.3c-5.1,1.6-10.1-0.8-12.4-4.9c-2.5-4.6-1.6-8.9,1.4-12.9c1.4-1.9,3.1-3.5,4.8-5.5
	c-13.3-5.8-26.4-11.5-39.5-17c-1.3-0.5-3.4,0.2-4.9,0.9c-6.4,2.8-12.5,6.2-19,8.7c-5.9,2.3-10.8,0.7-13.6-3.3c-2.8-3.9-2.2-9,1.6-14
	c1.1-1.4,2.3-2.8,3.6-4.5c-9.7-3-18.6-4.1-27.6,0c-12.6,5.7-25.4,10.8-37.8,16.9C551.6,218.1,541.3,224.6,530.8,230.6z
	 M1322.2,430.3c-1.7-1.6-2.8-2.6-3.8-3.6c-16.8-15.7-37.4-21.4-59.6-22.8c-1.5-0.1-3.2,1-4.5,2c-4.1,3.4-7.7,7.5-12,10.6
	c-14.4,10.5-30.7,16.9-47.8,21.2c-39.8,10.1-80.5,13.8-121.4,16c-35.4,1.9-70.4,7-105,14.4c-24.8,5.4-48.1,14.3-68.3,30.3
	c-0.9,0.7-1.8,1.6-3.4,3.1c2.4,0,3.7,0,5,0c88.8-2.7,177.4-8,264.9-24.6c40.5-7.7,80.6-16.6,119.2-31.3
	C1297.8,441.1,1309.6,435.7,1322.2,430.3z M144,178.4c1.5,2.9,2.7,5.9,4.5,8.5c13.6,19.4,30.1,36.3,49.9,49.2
	c19.4,12.7,40,23.4,61.7,31.8c27.2,10.5,54.9,17.5,84.4,15.5c19.8-1.4,39.2-4.5,58.3-9.8c20.4-5.7,40-13.3,59-22.6
	c7.9-3.9,8.7-10.2,8.7-17.5c-7.1,2.8-13.8,6.4-20.9,8c-15.5,3.4-31.1,6.3-46.8,8.5c-38.6,5.3-76.4,1.9-113.8-9.2
	c-36.5-10.8-69.9-28.2-102.4-47.7c-10-6-20.8-10.7-31.3-16.1C151.5,175.1,148.1,176.1,144,178.4z M119.2,176.3
	c-1.7,1.6-3.4,3.1-4.9,4.9c-20.7,25.4-32.8,55-41.9,86c-0.8,2.8-1.1,5.9-1.1,8.8c0,9-2.2,8.5,8.1,10.1c16.7,2.6,33.5,4.7,50.4,5.9
	c29.9,2.2,59.5,0.5,87.5-12c1.3-0.6,2.6-1.2,4-1.7c-10.1-6.1-20.2-11.6-29.6-18C160.2,238.9,133,213.7,119.2,176.3z M489.3,232.8
	c2.6-1.4,4-2.2,5.3-3c15.1-9.6,29.8-19.7,45.2-28.5c11.9-6.9,24.5-12.6,37.2-18.1c5.7-2.5,12.1-3.2,18.7-4.8c-0.9-0.6-1.4-1-2-1.4
	c-14.1-8.2-28.2-16.5-42.5-24.4c-6.9-3.8-14.1-7-21.2-10.2c-4.8-2.2-9.3-1-12.3,3.2c-3.2,4.6-6.8,9.2-8.7,14.4
	c-5.2,14.2-10.2,28.5-14.3,43C492.1,212.4,491.2,222.2,489.3,232.8z M581,156.4c0.5,0.4,0.9,0.9,1.4,1.2c11,6.9,21.9,13.7,32.9,20.5
	c1.4,0.8,2.9,1.4,4.5,1.9c5.9,1.9,11.9,3.8,17.9,5.4c2.1,0.5,4.6,0.4,6.6-0.3c8-2.7,15.8-6.1,23.8-8.6c4.6-1.4,9.5-1.7,14.4-2.6
	C665.6,152.4,611.4,143.1,581,156.4z M1050,337.1c0,4.7,0.3,8.7-0.1,12.6c-0.3,2.8,0.2,4,3,4.6c12,2.8,23.9,5.7,35.9,8.5
	c2.7,0.6,5.5,1.1,8.3,1.5c2.8,0.4,5.5,0.7,8.9,1.2C1089.4,351.4,1070.5,343.4,1050,337.1z M733.5,210.9c-3-2-5.5-3.8-8.2-5.4
	c-3.1-1.8-7.5-2.5-9.3-5.1c-4.9-7-10.7-9.3-18.8-6.7c-1.7,0.6-3.5,0.4-5.3,0.7c-5.6,1.2-11.1,2.5-16.7,3.8c0.1,0.5,0.1,0.9,0.2,1.4
	c12.1,4.1,24.3,7.6,36.1,12.4C719.2,215.3,725.9,213.3,733.5,210.9z M976,313.5c-13.1-5.7-25.7-11.4-38.4-16.7
	c-8.7-3.6-8.8-3.2-14.2,4.6c-0.2,0.4-0.4,0.8-0.7,1.5c1.5,0.6,3,1.3,4.5,1.8c11.5,4.4,23,8.8,34.5,13.3
	C969.9,321.4,969.9,321.5,976,313.5z M993.7,331.6c9.5,3.9,19.1,7.9,28.7,11.9c1.4-4.9,2.7-9.2,4-13.7c-7.2-1.8-14.1-3.5-20.9-5.3
	c-8.7-2.3-8.7-2.4-11.8,6.2C993.6,330.8,993.7,331,993.7,331.6z M853.2,265.6c-8.2-4.4-15.9-8.6-23.5-12.7c-0.6-0.3-1.5-0.4-2.1-0.2
	c-4.6,1.4-9.2,2.9-15.1,4.8c6.7,3.4,12.6,5.8,17.9,9.2c7.3,4.8,14.1,5.9,21.2,0C851.7,266.5,852,266.3,853.2,265.6z M866.7,282.2
	c0.2,0.3,0.3,0.7,0.5,0.8c9.6,3.5,19.1,7,28.7,10.5c0.8,0.3,2.1,0.1,2.7-0.4c2-1.8,3.9-3.8,5.8-5.7c-8.2-2.8-16.2-4.6-23.5-8.1
	C874.8,276.2,870.8,278.2,866.7,282.2z M794.3,238.6c-8.4-3.5-16.6-6.5-24.5-10.3c-4.8-2.3-8.4-1.6-12.4,1.5
	c6.5,3.2,13.1,5.7,18.9,9.5C782.7,243.4,788.1,242.3,794.3,238.6z"/>
<path d="M577.3,311c0,0,87.3,23.9,179.2,73.9C756.6,384.9,672.6,359,577.3,311z"/>
<g>
	<g>
		<g>
			<path class="st1" d="M590.3,373.2l-5.5-2.3c-7-3-10.1-9.9-7.2-16.8c2.9-6.8,10-9.5,17-6.6l3.7,1.6l-1.6,3.9l-3.7-1.6
				c-4.8-2-9.3-0.2-11.3,4.4c-1.9,4.6-0.1,9.1,4.7,11.1l1.6,0.7l2.5-5.8l-3.7-1.6l1.6-3.9l7.7,3.3L590.3,373.2z"/>
			<path class="st1" d="M630.4,362.6l-9.9,23.4l-4-1.7l4.2-9.9l-9.4-4l-4.2,9.9l-4-1.7l9.9-23.4l4,1.7l-4,9.5l9.4,4l4-9.5
				L630.4,362.6z"/>
			<path class="st1" d="M637.2,379.2c2.9-6.8,10.5-9.9,17.3-7c6.7,2.8,9.9,10.5,7,17.3s-10.5,9.9-17.3,7
				C637.5,393.7,634.3,386,637.2,379.2z M657.3,387.8c2-4.7,0-9.7-4.6-11.6c-4.5-1.9-9.6,0.2-11.5,4.9c-2,4.7,0,9.7,4.6,11.6
				C650.4,394.5,655.4,392.4,657.3,387.8z"/>
			<path class="st1" d="M671.9,398.7l6.6-15.7l4,1.7l-6.6,15.7c-0.9,2.2-0.1,4.9,2.5,6c2.5,1.1,5-0.2,6-2.4l6.6-15.7l4,1.7
				l-6.6,15.7c-1.9,4.6-6.7,6.8-11.7,4.7C671.7,408.2,670,403.3,671.9,398.7z"/>
			<path class="st1" d="M721.4,414.8c-2.9,6.8-10,9.5-17,6.6l-6-2.5l9.9-23.4l6,2.5C721.3,401,724.3,408,721.4,414.8z M717.3,413.1
				c2-4.6,0.1-9.1-4.7-11.2l-2-0.8l-6.6,15.5l2,0.8C710.8,419.5,715.4,417.7,717.3,413.1z"/>
		</g>
	</g>
	
		<rect x="654.8" y="357.4" transform="matrix(0.3888 -0.9213 0.9213 0.3888 64.1989 829.0623)" class="st1" width="4.5" height="17.5"/>
</g>
</svg>
