<?xml version="1.0" encoding="utf-8"?>
<!-- Generator: Adobe Illustrator 27.5.0, SVG Export Plug-In . SVG Version: 6.00 Build 0)  -->
<svg version="1.1" id="Livello_1" xmlns="http://www.w3.org/2000/svg" xmlns:xlink="http://www.w3.org/1999/xlink" x="0px" y="0px"
	 viewBox="0 0 1385.6 687.8" style="enable-background:new 0 0 1385.6 687.8;" xml:space="preserve">
<style type="text/css">
	.st0{stroke:#000000;stroke-width:5;stroke-miterlimit:10;}
	.st1{stroke:#000000;stroke-width:3;stroke-miterlimit:10;}
</style>
<path class="st0" d="M426.1,136c-1.7-9.3,1.3-18,4.1-26.8c1-3.1,0.5-6.6,0.7-9.9c0.5-13.3,0.8-26.6,1.6-39.9
	c0.4-7.1,3.7-13.1,8.3-18.3c5.8-6.5,14.3-6.9,22-7.1c7.7-0.2,15.6,0.9,23,2.8c24.3,6.3,47.5,16,69.5,28c7.1,3.9,11.4,4.4,18.6,0.4
	c16.2-8.9,33.9-13.4,52.7-10.9c13.4,1.8,24.6,8.2,33.3,18.6c6,7.2,11.6,14.7,17.1,22.3c3.6,4.9,7.9,7.2,14.1,7
	c11-0.4,21.8,1.4,32.2,5.3c11.1,4.1,19.2,11.5,24.3,22.2c0.6,1.3,2.6,3,3.8,2.9c22.4-2.5,39.9,7,54.2,23c4.3,4.7,8.7,7.4,14.9,8.8
	c17.6,4.2,32.4,12.7,41.5,29.2c0.5,0.9,2.2,1.7,3.4,1.7c25.4,1.6,43.6,14.5,56.5,36c0.8,1.4,3,2.4,4.7,2.6
	c23.4,3.1,39.2,16.3,50.6,36.9c13.4-1.4,23.6,6.1,34.3,14c32.2,24,66.7,44,106,54.4c40.3,10.6,80.4,22,120.9,32.1
	c30.4,7.6,59.7,18,87.9,31.9c14.8,7.3,28.9,15.6,39.2,28.8c15.5,19.8,20.1,42.2,14.3,66.8c-1.4,6-2.5,12.2-4.6,18
	c-6.4,18-17.9,32.3-31.9,45.4c-21.5,20-45.1,36.8-70.6,51.5c-28,16.2-58.7,24.3-89.9,31.3c-13.9,3.1-27.5,7.7-41.5,10.2
	c-24.6,4.5-49.6,7.1-74.2,11.9c-36.3,7.1-73,9.5-109.7,11.4c-46.6,2.4-93.3,4.5-139.9,0.6c-23.7-2-47.5-3.5-71-6.6
	c-14-1.8-28-5.4-41.6-9.7c-13.5-4.3-27-3.7-40.5-2.2c-43.4,4.9-86.6,10.4-130,15.2c-15.9,1.8-32,2.5-48,3
	c-48.1,1.3-96.1,2.7-144.2,3.1c-32,0.3-64.1-0.9-96.2-1.9c-32.7-1-65.3-2.1-98-3.8c-23.7-1.2-47.6-1.2-71-6.5
	c-22.8-5.2-43.4-14.3-59.3-32C6.9,625.8,3,611.7,7,595.7c8-32,21.2-61.7,39.7-89c2.5-3.7,4.9-7.6,8.2-10.4
	c5.9-5.2,5.9-11.5,4.9-18.2c-1.3-8.4-3.3-16.5-6.5-24.5c-5.5-13.8-6.9-28.4-3.9-43.4c3.9-19.4,6.5-39,9.8-58.6
	c3.2-19.4,6.8-38.7,9.6-58.2c2.2-15,3.5-30.2,5.4-45.3c1.9-14.7,5.6-29,13.4-41.8c14.5-24,25.4-49.5,33.5-76.4
	c7.3-24.1,20.8-44.3,40.6-60.2c15.4-12.4,32.4-16,50.7-7.8c14,6.3,22.4,17.7,25.6,32.8c0.7,3.4,1.4,6.8,2,10.3
	c3.8,20.7,17,32.7,36.5,37.4c33.5,7.9,67.3,7.9,101.1,1.8C393.5,141,409.4,138.7,426.1,136z M241.4,263.2c1.8,0.9,3.2,1.7,4.7,2.5
	c25.8,14.3,51.8,28.2,77.3,43c9.2,5.4,18.2,11.8,25.6,19.5c7.7,8,14.7,17.4,19.4,27.4c8.4,17.9,15.7,36.4,22.1,55.1
	c7.8,22.8,13.8,46.1,21.1,69c4.4,13.7,9.6,27.1,14.7,40.6c0.4,1,2.2,2.1,3.4,2.2c10.1,0.5,20.3,0.7,30.5,0.9c1.3,0,3-0.9,3.8-1.9
	c6.2-7.6,11.8-15.8,18.5-23c40.7-43.8,81.6-87.5,122.5-131.2c5.5-5.9,11.2-11.6,16.8-17.5c3.1-3.2,6.6-4.5,10.7-2.2
	c4.5,2.5,9.4,4.8,13.4,8c19.9,16,39.9,31.9,59.3,48.6c9.5,8.2,12.6,8.6,2,20.8c-31.5,36.1-63.1,72.1-94.6,108.2
	c-0.5,0.5-0.8,1.2-1.4,2.1c13,1.9,25.5,3.8,38.1,5.5c1.2,0.2,3-1.3,3.9-2.5c10.2-12.4,19.9-25.1,30.4-37.1
	c12.4-14.2,25-28.4,38.3-41.8c14.6-14.8,29.1-29.9,45.4-42.6c30.9-24.1,65.6-36.6,105.7-30c38.4,6.3,76.8,12,115.2,17.8
	c29.8,4.5,59.6,9.5,89.5,12.6c42.4,4.3,85,7.6,127.6,10.2c24.4,1.5,48.9,2.1,73.2-1.4c11-1.6,21.3-5.3,31.9-12.4
	c-11.1-4.1-20.8-8.5-31-11.1c-25.5-6.5-51.1-12.6-76.8-18.1c-23.9-5.2-47.7-10.1-70.8-18.2c-14.2-5-28.5-9.8-42.8-14.5
	c-1.4-0.5-3.5,0-4.9,0.8c-5.1,3-9.7,7.6-15.1,9.5c-42.1,14.5-83.9,15.3-124.8-4.8c-7-3.4-13.9-7.1-21.1-9.8
	c-24.1-9-47.6-19.4-70-32.1c-30.7-17.3-62.1-32.6-96.8-39.9c-33-6.9-63-20.2-89.9-40.6c-12.7-9.6-26.7-17.2-41.9-22.1
	c-4.4-1.4-9.3-2.8-13.9-2.4c-8.2,0.7-16.2,2.5-24.3,4.1c-12.7,2.6-25.6,7.1-38.5,3.5c-25.5-7.3-47.9-20-63.9-42.1
	c-1.2-1.6-2.4-3.2-3.5-4.7c-6.6,3.2-12.7,6.2-18.9,9.2c4.7,7,9.4,13.5,13.5,20.2c22.9,37.5,45.7,75.1,68.5,112.6
	c3.7,6.1,0.7,11.3-6.6,11.9c-14.7,1.3-29.4,2.8-44.1,3.6c-22.3,1.3-44.7,2.2-67,3.2c-3.6,0.2-6.3-1.4-8.3-4.5
	c-24-36.4-48.1-72.8-72.2-109.1c-0.9-1.4-3.1-2.5-4.8-2.6c-9.7-0.5-19.3-0.8-29-0.8c-2.1,0-4.8,0.8-6.1,2.3
	c-5.4,6-10.5,12.3-15.4,18.7c-8.2,10.6-18.5,18.3-31.1,22.7C253.3,260.4,247.6,261.5,241.4,263.2z M1325.9,423.8
	c-8.5,10.1-18.4,16.5-30.8,19.7c-28.9,7.5-58.3,6.3-87.6,5c-31.9-1.5-63.7-4.1-95.5-6.1c-44-2.8-87.9-7.3-131.4-14.7
	c-29.9-5-59.8-9.6-89.9-13.2c-14.1-1.7-28.8-2.2-42.8-0.2c-28.4,4-53.9,15.8-74.4,36.4c-30.2,30.2-59.7,61-89.6,91.5
	c-0.7,0.7-1.1,1.6-1.7,2.6c10.7,1.2,20.9,2.5,31.1,3.6c24,2.7,47.9,5.8,71.9,7.9c35.4,3.1,70.9,5.4,106.3,8.1
	c41.2,3.2,82.5,3.6,123.7,1.8c23.7-1.1,47.4-4.1,71-6.9c33.2-3.9,66.7-6.9,99.5-13c57.8-10.7,115.1-24,170.6-44
	c1.9-0.7,4-2.7,4.7-4.6c3.5-9.8,3.7-19.8,0.7-29.8C1356,448.4,1341.4,436.1,1325.9,423.8z M668.1,636.4c0-0.2,0-0.5-0.1-0.8
	c-16.4-24.2-30.2-49.9-41.3-77c-0.4-1-2-1.9-3.1-2.1c-7.1-0.8-14.2-1.4-21.3-1.9c-28.5-2.1-57-4-85.4-6.2c-39-3.1-78-3.2-117-0.9
	c-29.8,1.8-59.6,3.7-89.4,4c-43,0.4-86-2.2-128.5-9.6c-37.8-6.5-75.5-13.8-110.5-30.6c-0.2-0.1-0.6,0-1,0.1
	c-0.3,0.4-0.8,0.9-1.1,1.4c-11.5,21.3-23.2,42.5-34.3,64c-6.6,12.7-9,26.2-5.6,40.5c1.2,5.2,3.5,9.3,8,11.7
	c7.9,4,15.8,8.2,24.1,11.1c24.4,8.7,49.9,10,75.6,9.7c31.4-0.3,62.8-1,94.3-0.6c39.7,0.5,79.3,2.3,119,3c23.2,0.4,46.3,0.3,69.5-0.4
	c32.5-0.9,65-2.7,97.5-3.8c17.4-0.6,35,0.7,52.3-0.8C602.4,644.5,635.1,640.1,668.1,636.4z M1343.6,527.6c-0.2-0.3-0.5-0.5-0.7-0.8
	c-6.1,2-12.1,4.5-18.4,6c-39.5,9.8-78.9,20.2-118.7,28.8c-40.9,8.9-81.5,19.5-123.2,23.9c-37.1,4-74.3,6.4-111.7,5.1
	c-18.1-0.6-36.2-1-54.2-1.8c-46.7-2.1-93.7-0.7-140.1-7.5c-33.2-4.9-66.4-10.2-99.6-15.6c-9.9-1.6-19.7-4.1-30-6.3
	c0.6,1.3,0.9,2.4,1.4,3.3c14.2,24.2,28.3,48.5,42.7,72.6c1,1.6,4,2.6,6.2,2.9c8.5,0.9,17.2,0.5,25.5,2c38.3,7,76.7,12.3,115.7,13.4
	c70.8,2.1,141.5,0,212.1-6.4c50-4.5,98.7-14.6,146-31.5c47.1-16.9,91.2-39.3,129.9-71.3C1332.6,539.2,1337.9,533.2,1343.6,527.6z
	 M496.2,162.7c2.8,3,5.5,6.3,8.6,9.1c3.8,3.3,8.3,5.9,12.2,9.1c19.5,16.1,41.6,21,66,15.1c29.1-7.1,56.6-3.3,82.6,11.6
	c19.5,11.2,39.2,22.2,58.7,33.4c12.6,7.2,26.1,12.1,40.2,15.4c15.4,3.6,30.9,7,46.2,11.2c22.7,6.3,42.4,19.1,63,30.1
	c21.9,11.7,44,23.3,66.2,34.6c19.7,9.9,40.3,16.6,62.5,18.4c21.5,1.8,42-0.6,62.1-9.8c-23.8-14.5-47.4-28.9-71.5-43.6
	c-5.1,7.6-10.6,16-16.2,24.2c-3.5,5.1-8,6.9-12.1,5.1c-4.2-1.8-6.2-6.3-4.3-12.3c2-5.9,4.7-11.7,8-17.1c2.4-3.9,6-7.1,9.2-10.8
	c-1.4-0.3-2.7-0.8-3.8-0.7c-7.5,0.8-12.2-3.1-16.1-8.9c-2.4-3.6-5.4-6.9-8.8-11.1c-7.7,7.3-14.9,14.2-22.1,21
	c-3.4,3.3-6.6,6.9-10.2,9.9c-3.2,2.6-7.1,3-10.6,0.5c-3.7-2.6-4.7-6.4-3.4-10.5c0.9-3,2.2-6,3.9-8.6c5.4-8.6,12.6-15.4,21.3-20.8
	c1-0.6,1.9-1.3,3.5-2.3c-3-0.4-5.2-1.1-7.4-1c-7.2,0.4-11.9-2.9-15.7-8.7c-3.4-5.3-7.6-10-12.2-16c-8.8,10.7-16.9,20.6-25.1,30.4
	c-2.4,2.9-4.9,6-8,8.1c-6.5,4.5-14.7,0.2-14.4-7.7c0.1-3.9,1.3-8.4,3.5-11.6c4.6-6.6,9.9-12.7,15.5-18.5c4.1-4.2,9.1-7.5,14.1-11.6
	c-6.6-2.7-12.9-6-19.8-4.4c-6.1,1.5-9.9-1.3-13.6-5.4c-3.4-3.8-7-7.6-11-12.1c-8.5,7.8-16.7,15.1-24.6,22.5
	c-4.7,4.4-9,9.4-13.9,13.7c-4.3,3.7-8.7,4-12.2,1.3c-4-3.1-4.6-7.3-2.8-11.6c1.9-4.5,3.8-9.5,7.1-12.7c8.8-8.4,18.4-16,27.6-23.8
	c0.9-0.7,1.9-1.3,2.8-2c0.1-0.5,0.1-0.9,0.2-1.4c-15.7,0.5-29.7-3-39-16.8c-2.1,1.7-3.7,2.8-5,4.1c-7.8,8.1-15.4,16.4-23.2,24.5
	c-3.4,3.5-7,6.9-10.8,10c-3.1,2.5-6.8,2.5-10.2,0.1c-3.3-2.4-4.4-6-3.3-9.7c1.1-3.4,2.6-6.9,4.6-9.9c7.4-11.3,16.8-20.6,28.2-27.9
	c1.1-0.7,2.2-1.5,3.8-2.6c-6.2-2.2-11.8-2.2-17.3-0.5c-7.6,2.2-13.3-0.2-18-6.1c-2.4-3.1-5-5.9-8.2-9.7
	c-11.2,9.9-21.9,19.3-32.6,28.7c-4.2,3.7-8,7.7-12.4,11c-5.1,3.9-10,4-13.5,1c-3.5-3.1-3.8-7.9-0.6-13.5c0.9-1.7,1.9-3.3,3-4.8
	c9.5-13.5,21.6-24,36-32c1.2-0.7,2.3-1.4,3.4-2.1c-0.1-0.5-0.1-0.9-0.2-1.4c-5.9-0.5-11.8-1-17.8-1.4c-9.8-0.7-18.8-2.7-24.5-11.8
	c-1.8-2.9-4.1-5.6-6.8-9.3c-12.3,8.2-24.5,16-36.4,24.4c-7.5,5.3-14.3,11.6-21.7,17c-4.8,3.5-9.8,2.9-13.1-0.4
	c-3.4-3.3-4-8.1-0.7-13.1c3.4-5.1,7.2-10.1,11.5-14.5c12.7-13.2,27.7-23,46.3-28.4c-7.5-5.6-14.1-10.5-23.7-9
	c-17.3,2.7-31.3,11.4-44.7,22c-25.6,20.3-51.3,40.4-77,60.6C497.4,161.2,497.1,161.6,496.2,162.7z M144.1,252.7
	c-0.1,0.4-0.2,0.8-0.3,1.2c4.1,3.5,8.1,7.1,12.2,10.5c26.4,21.9,51.6,45.1,81.4,62.6c1.2,0.7,2.4,1.6,3.4,2.6
	c3.8,3.7,4.2,7.8,0.8,11.8c-1.9,2.3-4.3,4.2-6.6,6.2c-8.4,7.2-16.8,14.6-25.4,21.5c-12.4,9.9-24.9,19.6-37.4,29.3
	c-6.1,4.7-12.4,5.1-19,1.2c-5-3-10.3-5.7-14.9-9.3c-18.8-14.7-37.1-29.8-53-47.7c-0.9-1-1.9-1.9-2.9-2.8c-0.6,0.1-1.1,0.2-1.7,0.2
	c-0.7,16.9-1.4,33.7-1.8,50.6c0,1.7,1.5,3.8,2.9,5.1c10.1,9.6,21.5,17.3,34.5,22.4c36.3,14.2,74.7,21.3,112.3,30.5
	c25,6.1,50.9,9.1,76.3,13.6c17.7,3.2,35.2,7.1,49.8,18.6c9.1,7.1,18.4,14.1,27.6,21.1c5.5,4.2,11,8.3,17.3,13.1
	c-3.5-9.6-6.8-18.1-9.8-26.8c-13.4-38.6-27-77.2-40.1-116c-5.5-16.2-15.8-28-30.3-36.4c-8.4-4.9-17.1-9.1-25.5-13.9
	c-33.2-18.9-65.3-39.9-100-56.1c-2.9-1.3-5.8-2.8-8.3-4.7c-5.2-4-11-5.8-17.6-6.2C160,254.6,152,253.5,144.1,252.7z M82,496.4
	c9.4,3,17.9,6.5,26.8,8.5c52.1,11.7,105.1,15.3,158.2,17c35.6,1.2,71.4,0,107.1-0.1c0.7,0,1.4-0.3,2.1-0.4c0.2-0.5,0.5-1,0.7-1.5
	c-13.2-8.1-26-16.8-39.5-24.3c-16.2-9-34-14.5-52.2-16.9c-47.3-6.2-93.7-16.2-139.1-30.8c-23.2-7.4-46-15.6-65.6-30.5
	c-2.2-1.7-4.5-3.2-6.9-4.8c-3.3,8.4-3.7,16.3,0.1,24.3c2.4,5.2,4.9,10.3,6.9,15.7C85.7,466.5,89.7,480.5,82,496.4z M632.3,369.9
	c-48.4,51.7-96.6,103.2-145.2,155.2c2.5,0.3,4.4,0.6,6.4,0.8c16.1,1.3,32.3,2.6,48.4,4c13.4,1.1,26.8,2.6,40.3,3.5
	c2.2,0.2,5.1-1,6.7-2.5c3.5-3.4,6.4-7.4,9.7-11.1c29.8-34.2,59.6-68.4,89.4-102.7c0.4-0.4,0.6-1,0.7-1.3
	C669.8,400.4,651.3,385.3,632.3,369.9z M283.1,211.1c-2.7-0.4-4.9-0.8-7-1.1c-14.1-1.8-27.7-5-40.9-10.5
	c-23.2-9.6-37.6-26-39.7-51.6c-0.9-10.9-0.3-21.9-1.2-32.8c-0.8-9.9-2.1-19.8-4-29.6c-1.4-7-5.1-8.5-11.6-5.8
	c-10.6,4.4-19.1,11.7-24.9,21.3c-5.9,9.7-11.2,20-15.2,30.6c-9.7,25.6-18.5,51.6-32.6,75.4c-1,1.6-1.8,3.4-2.3,5.2
	c-0.3,1-0.1,2.6,0.6,3.2c5.5,5.7,11.1,11.3,16.9,16.8c0.9,0.8,2.6,1.6,3.7,1.3c17.3-3.3,34.4-1.3,51.6,0.8c15.7,2,31.2,5.9,47.3,4.2
	c15.5-1.7,30.9-3.8,44.6-12.1C274.3,222.6,279.5,218,283.1,211.1z M364.9,213.2c4.5,7.2,9.1,14.1,13.3,21.1
	c14.9,25.3,29.7,50.6,44.4,76c1.7,2.9,3.5,3.8,6.8,3.5c5.7-0.6,11.4-0.7,17.1-0.9c20.5-0.8,40.9-1.5,61.4-2.3
	c4.7-0.2,9.3-0.7,14.5-1.1c-13.1-20.5-26.1-40.1-38.5-60.2c-12.4-20.2-24.2-40.8-36.3-61.5C421.9,200.3,393.8,207.7,364.9,213.2z
	 M220.6,335.2c-0.9-0.6-1.4-1-2-1.3c-26.6-14.3-50.9-32.1-74.2-51.3c-5.6-4.6-10.8-9.8-16.1-14.8c-9.7-9.1-19.5-18.2-29.2-27.2
	c-0.8-0.8-1.9-1.3-3.2-2.2c-0.3,1.3-0.5,2-0.6,2.8c-3.2,23.2-6,46.5-9.8,69.7c-1.3,7.9,0.4,12.7,6,18.3c17,16.8,35.1,32.1,55.2,45
	c13.6,8.8,13.7,9,26.7-1.1C189.3,360.7,204.7,348,220.6,335.2z M216.1,87.3c-0.5,0.2-1.1,0.5-1.6,0.7c0,11.7,0.9,23.4-0.3,35
	c-1.2,11.6,0.1,22.7,2.4,33.9c1.4,6.7,4.6,12.4,10.5,15.7c8.1,4.6,16.4,8.9,25,12.4c17.2,7,35.6,7.7,53.8,8.4
	c13.1,0.6,26.4,0.8,39.4-0.5c33.5-3.2,64.9-14.2,95-28.9c1.2-0.6,2.3-1.3,3.6-2.1c-2.5-2.5-4.4-5-6.8-6.7c-1.4-1-3.8-1.7-5.3-1.2
	c-25,8-51,9.6-76.8,12.9c-23.8,3-47.5-0.5-71.1-3.1c-15.3-1.6-29.8-5.7-42.8-14.5c-6.9-4.7-11.9-10.5-13.7-18.6
	c-2-9.3-3.4-18.7-5.6-27.9C220.6,97.5,218.1,92.5,216.1,87.3z M552.9,81.3c-1.5-0.9-2.4-1.4-3.4-1.9c-15.8-8.6-32.6-15.1-50-19.3
	c-11.3-2.7-23.1-4-34.7-5.1c-6.2-0.6-7.7,1.3-8.7,7.5c-0.3,2-0.4,4.1-0.7,6.1c-1.4,9.9-3,19.7-4.3,29.6c-1.3,10-3.2,20.1-3.2,30.1
	c0,10.1,4.8,18.8,11.8,26.9C493.4,133.7,522.7,107.4,552.9,81.3z"/>
<path d="M612,242.1c0,0,85.7,29,174.6,84.3C786.6,326.3,704.3,295.5,612,242.1z"/>
<g>
	<g>
		<g>
			<path class="st1" d="M621.4,304l-5.4-2.7c-6.8-3.5-9.3-10.7-5.9-17.2c3.4-6.6,10.7-8.8,17.5-5.3l3.6,1.8l-1.9,3.8l-3.6-1.8
				c-4.6-2.4-9.3-0.9-11.6,3.6c-2.3,4.5-0.7,9.1,3.9,11.5l1.5,0.8l2.9-5.6l-3.6-1.8l1.9-3.8l7.5,3.8L621.4,304z"/>
			<path class="st1" d="M662.2,296.4L650.6,319l-3.9-2l4.9-9.6l-9.1-4.6l-4.9,9.6l-3.9-2l11.6-22.6l3.9,2l-4.7,9.2l9.1,4.6l4.7-9.2
				L662.2,296.4z"/>
			<path class="st1" d="M667.7,313.5c3.4-6.6,11.2-9.1,17.7-5.7c6.5,3.3,9.1,11.2,5.7,17.7s-11.2,9.1-17.7,5.7
				C666.9,327.9,664.4,320,667.7,313.5z M687.2,323.4c2.3-4.5,0.7-9.7-3.7-12c-4.4-2.2-9.5-0.5-11.9,4s-0.7,9.7,3.7,12
				C679.7,329.7,684.9,328,687.2,323.4z"/>
			<path class="st1" d="M701,335.4l7.8-15.2l3.9,2l-7.8,15.2c-1.1,2.1-0.4,4.9,2,6.1c2.4,1.3,5,0.2,6.1-1.9l7.8-15.2l3.9,2
				l-7.8,15.2c-2.3,4.4-7.1,6.3-12,3.8C700,344.9,698.7,339.9,701,335.4z"/>
			<path class="st1" d="M749.1,355.2c-3.4,6.6-10.7,8.7-17.5,5.3l-5.8-3l11.6-22.6l5.8,3C750,341.4,752.5,348.6,749.1,355.2z
				 M745.2,353.2c2.3-4.5,0.7-9.1-3.9-11.5l-1.9-1l-7.7,15l1.9,1C738.2,359.1,742.9,357.6,745.2,353.2z"/>
		</g>
	</g>
	
		<rect x="686.2" y="293.1" transform="matrix(0.4557 -0.8901 0.8901 0.4557 106.0186 777.0996)" class="st1" width="4.5" height="17.5"/>
</g>
</svg>
