<?xml version="1.0" encoding="utf-8"?>
<!-- Generator: Adobe Illustrator 23.0.4, SVG Export Plug-In . SVG Version: 6.00 Build 0)  -->
<svg version="1.1" id="Livello_1" xmlns="http://www.w3.org/2000/svg" xmlns:xlink="http://www.w3.org/1999/xlink" x="0px" y="0px"
	 viewBox="0 0 152 180" style="enable-background:new 0 0 152 180;" xml:space="preserve">
<title>Asset 1</title>
<g>
	<g>
		<g>
			<g>
				<g>
					<path d="M149.9,156l-3.8-1.7c-0.7-0.3-70.2-31-140.2,0L2,155.9l2.7-3.3C46.3,102.1,74.8,29.2,75.1,28.4l0.9-2.3l1,2.3
						c0.3,0.8,31.7,76.5,70.4,124.3L149.9,156z M73.9,138.3c10.8,0,20.6,0.9,28.9,2.2c19.3,2.9,34,8,40.5,10.5
						C109.3,107.6,81.4,44.1,76,31.4c-5,12.5-30.9,73.9-67.2,119.4C31.8,141.3,54.5,138.3,73.9,138.3z"/>
				</g>
			</g>
		</g>
	</g>
</g>
</svg>
