<svg xmlns="http://www.w3.org/2000/svg" xmlns:xlink="http://www.w3.org/1999/xlink" version="1.1" x="0px" y="0px" viewBox="0 0 64 80" enable-background="new 0 0 64 64" xml:space="preserve"><path d="M61,15.9521484H15.7755127l-1.9581299-7.4770508c-0.1152344-0.4399414-0.5126953-0.746582-0.9672852-0.746582H3  c-0.5522461,0-1,0.4477539-1,1s0.4477539,1,1,1h9.0786133l8.6743164,33.1230469  c0.1171875,0.449707,0.5224609,0.7475586,0.9667969,0.7470703c0.0112305,0,0.0227661-0.0040283,0.0340576-0.0043945h32.5303955  c0.4545898,0,0.8520508-0.3066406,0.9672852-0.746582l6.7158203-25.6420898  c0.0786133-0.2998047,0.0136719-0.6191406-0.1757813-0.8642578C61.6020508,16.0957031,61.3100586,15.9521484,61,15.9521484z   M53.512207,41.5942383H22.4946289l-6.1923828-23.6420898h43.4023438L53.512207,41.5942383z"/><path d="M26.0878906,45.253418c-3.0375977,0-5.5087891,2.4711914-5.5087891,5.5087891s2.4711914,5.5092773,5.5087891,5.5092773  s5.5087891-2.4716797,5.5087891-5.5092773S29.1254883,45.253418,26.0878906,45.253418z M26.0878906,54.2714844  c-1.9345703,0-3.5087891-1.5742188-3.5087891-3.5092773c0-1.9345703,1.5742188-3.5087891,3.5087891-3.5087891  s3.5087891,1.5742188,3.5087891,3.5087891C29.5966797,52.6972656,28.0224609,54.2714844,26.0878906,54.2714844z"/><path d="M49.9189453,45.253418c-3.0375977,0-5.5087891,2.4711914-5.5087891,5.5087891s2.4711914,5.5092773,5.5087891,5.5092773  s5.5087891-2.4716797,5.5087891-5.5092773S52.956543,45.253418,49.9189453,45.253418z M49.9189453,54.2714844  c-1.9345703,0-3.5087891-1.5742188-3.5087891-3.5092773c0-1.9345703,1.5742188-3.5087891,3.5087891-3.5087891  s3.5087891,1.5742188,3.5087891,3.5087891C53.4277344,52.6972656,51.8535156,54.2714844,49.9189453,54.2714844z"/></svg>