<?xml version="1.0" encoding="utf-8"?>
<!-- Generator: Adobe Illustrator 27.5.0, SVG Export Plug-In . SVG Version: 6.00 Build 0)  -->
<svg version="1.1" id="Livello_1" xmlns="http://www.w3.org/2000/svg" xmlns:xlink="http://www.w3.org/1999/xlink" x="0px" y="0px"
	 viewBox="0 0 1385.6 687.8" style="enable-background:new 0 0 1385.6 687.8;" xml:space="preserve">
<style type="text/css">
	.st0{stroke:#000000;stroke-width:5;stroke-miterlimit:10;}
	.st1{stroke:#000000;stroke-width:3;stroke-miterlimit:10;}
</style>
<path class="st0" d="M74,231.6c0.7-1.9,1.3-3.7,1.9-5.4c11.4-32.6,22.5-65.3,34.3-97.7c2.7-7.5,7.2-14.5,11.9-21
	c16.8-23,39.5-36.5,67.9-40.3c32.7-4.3,60,7.9,84.5,28c6.4,5.2,12.5,10.9,17.9,17.1c11.4,13.2,26,21.2,41.6,28.3
	c23.4,10.7,46.9,10.6,70.8,2.8c7.5-2.5,15-5,22.4-7.9c1.6-0.6,3.3-2.6,3.7-4.2c6.8-27.6,20-52.3,34.8-76.3c2.8-4.6,5-9.6,8.1-13.9
	c4.6-6.4,9.2-12.9,14.7-18.5c6.7-6.8,15.3-8.8,25-7.3c13.9,2.1,26.5,7.6,39,13.2c26.9,12.1,51.9,27.2,75.2,45.3
	c28.4,21.9,57.4,43,82.9,68.4c26.3,26.2,22.8,22.9,50.8,32.1c10.3,3.4,19.8,8.3,28.4,15.2c7.8,6.2,16.7,10.2,26.3,12.9
	c20,5.6,38.9,13.4,55.4,26.5c10.1,8,22.1,12.3,34.1,16.4c15,5.1,29.5,11.1,43.7,18.5c10.3,5.4,22.3,7.9,33.8,10.7
	c18.8,4.5,34.9,13.2,47.8,27.6c6.9,7.6,15.1,13.3,25,15.6c19.6,4.6,39.1,9.3,58.9,13c22.7,4.3,45.5,8.2,68.4,11
	c14.1,1.7,28.5,0.7,42.8,1.6c26,1.6,51.1,6.7,74.2,20c14.4,8.3,24.4,19.8,31.5,34.5c8.6,17.8,16.9,35.8,26.2,53.3
	c8,15,11.3,31.2,14.5,47.5c3.2,16.7,2.5,33.4-1.8,49.9c-1.1,4.2-0.7,8.9-1.6,13.1c-2.4,10.8-8.6,19.7-16.2,27.5
	c-13.4,13.8-29.3,23.7-47.3,30.3c-42.4,15.6-86.2,26-130.9,32.1c-33.6,4.6-67.3,8.6-101.1,11.8c-21.9,2.1-44,2.2-66,3.5
	c-19.1,1.2-38.2,3.1-57.4,4.2c-46.4,2.7-92.8,5.9-139.2,7.3c-51.7,1.5-103.4,1.6-155.1,1.6c-41.7,0-83.4-1.3-125.1-1.8
	c-10-0.1-20,1.3-29.9,1c-32.3-1.1-64.6-2.9-97-4c-25.8-0.9-51.7-0.8-77.5-1.8c-22-0.8-44-2.6-66-3.9c-17.2-1.1-34.5-2.3-51.7-3.4
	c-26.1-1.6-52.1-4.8-77.8-9.9c-14.6-2.9-29.5-4.6-43.8-8.5c-18.8-5.1-37.1-11.4-53.8-22.3c-20-13-26.1-31.3-23.8-53.6
	c3.8-37.5,8.1-75,12-112.5c1.7-16.3,4.8-32.3,11.1-47.5c3.7-8.8,5.3-17.9,4.5-27.4c-1.6-18.4,2.7-35.4,10.8-51.9
	c3.8-7.7,5.4-16.5,7.7-24.9c0.3-1-1.6-3-2.8-4c-8.1-6.3-16.8-12-24.4-18.7c-6.8-6-10.6-14.1-11.8-23.3c-2.3-17.7,8.5-31.5,26.3-33.5
	C53.4,226.7,63.6,228.4,74,231.6z M43.4,437.4c-0.9,5.4-2.1,10.3-2.6,15.4c-3.8,37.8-7.4,75.6-11,113.5c-0.8,8.6,1.7,16.5,7,23.2
	c9.6,12.1,20.8,21.8,35.8,27.1c38.2,13.6,77.7,20.4,117.8,24.4c30.6,3.1,61.2,6.1,91.9,8c23.7,1.5,47.5,1.6,71.3,1.6
	c16,0,32-1.8,48-1.5c24.9,0.4,49.7,2.5,74.6,2.8c23.6,0.3,47.2-1.2,70.9-1.2c37,0,73.9,0.3,110.9,1c18.9,0.3,37.7,2.1,56.6,2.6
	c40.8,1,81.5,1.8,122.3,2.3c14.1,0.2,28.2-0.4,42.3-1c23.9-1.1,47.8-2.6,71.7-4c24.5-1.4,49.1-2.7,73.6-4.2c1.6-0.1,3.4-1.8,4.4-3.2
	c5.7-7.9,10.4-16.8,16.9-23.9c17.6-19.2,40-30.7,64.7-38.3c20.3-6.3,41.3-6.3,62.1-8.3c40-3.8,79.6-10,118.4-20.6
	c19.2-5.2,37.6-12.4,54.2-23.7c2.9-2,4.4-4.1,4.2-7.8c-0.4-6.5-0.3-13-0.8-19.5c-0.8-10.8-2.7-21.3-7.6-30.4
	c-10,4.4-19.8,9-29.7,12.9c-9.3,3.7-18.8,6.6-28.2,10.1c-47.7,17.6-97.5,23.4-147.8,27.5c-40.3,3.3-80.5,7.3-120.8,10.9
	c-34.9,3.1-69.8,7.7-104.7,8.7c-40.5,1.2-81.1-0.3-121.7-1.6c-46.3-1.4-92.5-3.7-138.8-5.8c-20.9-1-41.7-2.9-62.6-3.8
	c-23.7-1-47.5-1.7-71.2-1.9c-17.6-0.2-35.3,1.8-52.8,0.5c-39.7-2.8-77.2-13.2-111.3-34.8c-26.3-16.6-55.1-26.1-86.5-26.5
	c-35.7-0.5-71.3-2.4-106.8-6.6C119.2,456.8,81,450.3,43.4,437.4z M362,340.2c2.6,2.2,4.6,3.7,6.5,5.3c28.7,23.6,52.4,51.2,66.9,85.8
	c9.6,22.8,18.5,45.8,27.5,68.9c1.3,3.3,2.7,4.2,6.1,4.1c21.7-0.7,43.5-2.1,65.1-1.4c64.5,2.1,129,3.5,193.4,9.4
	c2.8,0.3,3.9-0.6,4.9-3.1c2.1-5.1,4.2-10.3,7-15.1c20.6-35.3,40-71.3,63.9-104.7c1.1-1.5,2.1-3.1,3.5-5.2c-4.2-2.8-8-5.7-12-8
	c-10.9-6.4-22.2-12.4-33-19c-16.3-10-33.6-17.1-52.2-21.2c-16-3.6-31.9-4.4-46.9,3.6c-9.6,5.1-19,10.8-28.2,16.7
	c-7.9,5-15.1,11-23.1,15.8c-5.5,3.3-11.6,6.1-17.8,7.7c-15.5,4-28.6-3.6-33.6-18.8c-1.3-3.9-2.3-8-2.5-12
	c-0.6-13.3-0.5-26.6-1.2-39.9c-0.7-12.8-1.7-25.6-3.2-38.3c-1.1-8.8-7.2-13.2-15.6-15.1c-12.2-2.7-23.9,0.5-35.7,3
	c-1,0.2-1.8,1.3-2.6,2c-8.8,7.5-17.1,15.7-26.5,22.4C439,307.3,402.7,326.8,362,340.2z M69.2,311.9c-0.1,12.8-4.2,24-8.4,35.4
	c-3,8.2-5,17.2-5.1,25.9c-0.1,14.9,1,29.8-5.6,44.2c5.2,0.9,9.8,1.7,14.5,2.5c35.1,5.9,70.1,13,105.5,17.4
	c33.5,4.1,67.3,6.2,101,7.6c32.4,1.3,62.2,9.1,89.5,26.7c9,5.9,18.6,10.9,27.6,16.8c11.7,7.7,24.8,11.1,38.2,13.8
	c3.1,0.6,6.4,0.8,10.1,1.3c-4.6-11-8.8-21.3-13.2-31.4c-12.5-28.6-25.3-57.1-42.7-83.2c-10.7-16.1-25.4-28.9-42-37.9
	c-30.6-16.7-62.2-31.5-93.5-46.8c-29.6-14.5-60.6-25.3-92.4-33.5c-22.9-5.9-46.1-7.6-69.3,2.2c2.1,0.8,3.8,1.5,5.6,2.1
	c10.4,3.8,21.1,6.9,31.2,11.5c6.6,3,13.2,7.2,18.2,12.4c9.9,10.1,6.1,21.8-7.5,25.6c-9.4,2.6-18.5,1.4-27.6-1.5
	C92.1,319.3,81,315.7,69.2,311.9z M449.5,150c0.4,0.2,0.8,0.4,1.2,0.6c6.8-4.6,13.4-9.5,20.4-13.9c16.9-10.4,34.9-16.2,55.2-13.4
	c11.1,1.5,21.4,5.1,31.8,9.1c24.9,9.6,46.3,24.1,65.1,42.7c13.8,13.6,19.8,30.2,17.7,49.7c-1.4,13.1-2.5,26.2-3.3,39.3
	c-0.2,2.6,1.1,5.3,1.7,8c2.3-1.5,5.2-2.5,6.8-4.5c6-7.5,11.8-15.3,17.3-23.2c7-10,16.1-15,28.5-12.7c9,1.7,18.3,2.8,26.9,5.6
	c14.9,4.9,29.4,10.7,43.9,16.7c32.3,13.4,64.6,26.9,96.7,40.9c11,4.8,21.5,10.8,32.2,16.4c3.6,1.9,7,2,10.9,1.1
	c55.8-12.1,101.6,3.3,137,48.9c11.4,14.7,22.5,29.5,31,46.1c1.4,2.7,3.3,4,6.3,4.1c9,0.2,18.1,1.3,27.1,0.5
	c27.9-2.6,55.8-5.8,83.7-8.8c34.5-3.7,67.3-13.5,99.7-27.6c-3.5-1-6.7-2-9.8-2.7c-20.2-4.7-40.9-4.7-61.5-5.7
	c-17.4-0.8-34.8-1.8-51.9-5.7c-26.9-6-53.8-12.1-80.8-17.2c-26-4.9-50.2-13.4-71.1-29.9c-3.1-2.4-6.5-6.1-9.8-6.2
	c-3.2-0.1-6.5,3.8-9.8,5.9c-0.3,0.2-0.5,0.4-0.8,0.5c-3.7,2-7.3,2.2-10.5-0.9c-2.9-2.8-3-7.2-0.2-10.9c1.2-1.6,2.8-3,4.5-4.8
	c-15.5-7-30.6-13.9-45.8-20.6c-1.1-0.5-3.4,0.4-4.3,1.3c-5.6,6.4-11,13-16.4,19.7c-3.5,4.4-7.8,5.9-12,3.9c-4.1-2-6.2-6.7-4.2-11.8
	c1.5-4.1,3.8-8,6.3-11.6c2.1-3,5.1-5.5,7.9-8.5c-19.2-5.7-36.4-14.7-52.3-25.9c-6.5,8.2-12.6,15.9-18.7,23.6
	c-3.7,4.7-8.4,6.3-12.9,4.3c-4.5-2-6.6-7.1-5.1-13c2.3-8.6,7.4-15.3,14.2-20.9c1.2-1,2.3-1.9,4.6-3.7c-25-5.3-48.9-10.8-67.5-30.1
	c-4.6,7-8.4,12.8-12,18.7c-1.8,2.9-3.1,6.3-5.2,9.1c-2.6,3.6-6.4,5.2-10.9,3.9c-4.4-1.3-6.8-4.6-7.1-9.1c-0.2-2.2,0-4.5,0.5-6.6
	c2-8.6,6.3-15.9,12.8-21.8c1-0.9,2.5-1.2,3.6-1.7c-11.8-5.9-22.8-9.7-32-16.2c-28.6-20.2-56.6-41.3-84.7-62.2
	c-26.4-19.7-52.6-39.7-79.2-59.2c-11.1-8.2-23.5-14.4-36.9-18.1c-10.1-2.8-19.1-2-26.2,6.8c-1.8,2.2-4.2,4-5.6,6.4
	c-7.9,12.9-16.6,25.5-23.2,39.1C464.5,112,457.4,131.2,449.5,150z M864.8,516c11.7-0.6,22.4-1.1,33-1.6c28.8-1.3,57.7-2.3,86.5-3.8
	c39.1-2,78.2-3.7,117.2-6.9c45.2-3.7,90-10.7,134.3-20.8c30.9-7,61.6-15.1,90.1-29.7c1.6-0.8,3.2-1.8,4.7-2.6
	c-10.1-22.4-17.5-45.6-33.4-62.9c-9.4,5.5-18.5,11.6-28.3,16.3c-20.1,9.6-41.3,16.2-63.3,20.1c-39.5,7-79.4,8.4-119.4,8
	c-27.5-0.3-54.2-5.6-80.3-14.1c-6.5-2.1-13-4-19.7-5.6c-26.9-6.4-49.8-0.2-68.1,21.3c-13.6,16-25.5,33.1-35.9,51.4
	C876.9,494.9,871.3,504.8,864.8,516z M386.3,221.3c-7.7,3.1-15.4,7.1-23.5,9.4c-23.8,6.7-47.3,6.7-70.8-2.8
	c-12.6-5.1-23.6-11.5-31.8-22.4c-4.7-6.3-9.7-12.7-13.3-19.7c-8-15.5-14.9-31.5-22.7-47.1c-4.1-8.2-8-16.7-13.5-23.9
	c-7.1-9.2-16.5-16.7-28.6-18.1c-20-2.3-35.2,6.5-47.1,22c-10.5,13.6-16.1,29.4-21.7,45.2c-9.1,25.8-17.7,51.8-26.4,77.8
	c-0.1,0.2,0.2,0.5,0.3,0.9c28.3-3.1,56,0.3,83,8.7c24.3,7.6,48.4,16.2,72.4,24.6c29.5,10.3,57.7,23.7,85.1,38.9
	c1.5,0.9,3.6,1.5,5.3,1.2c7.5-1.3,15-2.5,22.4-4.5c31.1-8.6,59.8-22.7,87.3-39.4c6.3-3.8,11.8-8.7,18.1-13.4
	C433.6,250.3,408.3,239.5,386.3,221.3z M860.9,328.5c-1.6-1-2.3-1.4-3-1.7c-20.1-10.9-40.5-21.1-60.1-32.7
	c-32-19-67.3-29.4-102.5-40c-3.1-0.9-5.5-0.3-7.6,2.2c-4.3,5.3-8.4,10.8-13.1,15.6c-5.9,5.9-11.7,12.2-18.7,16.7
	c-16.4,10.4-34.1,2.4-38.1-16.6c-0.7-3.4-1-6.9-0.8-10.4c0.5-10.1,1.6-20.2,2.1-30.4c1.1-19.6-2.6-37.5-20.2-49.4
	c-7.3-5-14.9-9.6-22.8-13.7c-21.1-10.9-43.5-18.4-67.1-21.8c-3.2-0.5-7.2-0.1-9.8,1.5c-9.5,6-19,12.2-27.6,19.3
	c-17.3,14.2-35.7,26.3-55.7,36.3c-3.3,1.6-6.2,3.9-8.7,5.5c15.6,7.7,31.4,14.7,46.5,23c12.6,6.9,25.6,8.9,39.5,6.9
	c11.6-1.6,23.2-3.7,34.9-4.6c29.8-2.3,46,10.5,49.5,39.9c2.2,18.5,2,37.3,3.1,56c0.4,6.6,1.3,13.2,2.2,19.8c0.6,4.5,3.4,5.8,7.5,4.2
	c4.1-1.6,8.4-3,12.2-5.2c10.4-6,20.7-12.3,30.9-18.7c34.6-21.6,70.8-23.5,107.1-6.3c23.6,11.1,45.8,25.2,68.6,38
	c3.1,1.8,5.9,4.1,9.2,6.4C830.3,352.6,843.5,338.8,860.9,328.5z M1038.8,403.5c-0.3-1.3-0.4-1.8-0.6-2.1c-11-18.6-24.6-35-42.2-47.8
	c-18.3-13.4-38.7-19.4-61.2-18.3c-45,2.1-79.6,22.5-103.9,60.2c-24.1,37.3-47.6,75-71.3,112.5c-0.6,1-1.1,2.1-1.3,2.5
	c25.3,1,50.5,2.1,75.6,3c1.2,0,3-1,3.7-2.1c14.9-23.6,29.5-47.4,44.5-70.9c5.4-8.5,11.2-16.9,17.6-24.8
	c21.9-27.1,50.7-36.2,84.1-29.8c14,2.7,27.5,8.4,41.2,12.9C1029.5,400.2,1033.9,401.8,1038.8,403.5z M1349,544.5
	c-1.3,0.8-2.4,1.5-3.4,2.2c-11.2,8.2-23.5,14.6-36.8,18.4c-20.3,5.7-40.5,12-61.1,15.7c-33.3,5.9-67,10-100.6,14.5
	c-28,3.8-53.9,12.5-76.9,29.2c-7.3,5.3-12.3,12.5-17.8,20.4c2.3-0.2,3.7-0.2,5.1-0.5c25.5-4.8,51.1-9.3,76.6-14.5
	c31-6.3,62-13.2,93-19.6c30.9-6.4,61.6-13.5,90.9-25.6c8.2-3.4,15.9-8.6,23-14C1349.1,564.4,1352.7,555.7,1349,544.5z M425.1,161
	c-5.1,2.2-9.6,4.5-14.3,6.2c-23.9,8.7-48.5,10.2-73.5,6.1c-22.4-3.7-41.2-13.7-56.5-30.6c-10.5-11.7-21.2-23.1-32.1-34.4
	c-7-7.3-15.1-13.2-24.8-16.4c-5-1.6-10.5-1.7-15.7-2.5c-0.1,0.5-0.2,1-0.3,1.5c0.5,0.4,1,0.7,1.5,1.1c21,13.4,37.4,30.6,45.7,54.7
	c2.4,6.9,4.5,13.9,7.3,20.6c9,21.8,22.7,38.8,47.1,44.2c14.3,3.2,29.1,5.3,43.2,0.4c23.9-8.4,46.2-20.1,66.2-35.8
	c1.4-1.1,2.7-2.7,3.3-4.4C423.4,168.3,424.1,164.9,425.1,161z M69.2,247.1c-10.9-3.2-20.8-3.3-30.6,0.7c-6.1,2.5-8.6,5.8-7.3,12.3
	c0.6,3.1,1.9,6.7,4,8.9c4.6,4.9,9.4,10.3,15.2,13.4c18,9.6,36.4,18.5,54.9,27c3.8,1.8,9,1,13.5,0.8c3.2-0.2,4.4-2.3,2.5-5.3
	c-1-1.6-2-3.5-3.5-4.5c-5.2-3.2-10.5-6.2-16-8.9c-10.9-5.4-22.3-9.9-32.7-16.1c-9.2-5.5-9.7-10.5-4.5-20
	C66.2,252.8,67.7,250,69.2,247.1z"/>
<g>
	<g>
		<g>
			<path class="st1" d="M687.5,621.4l-9.6,0c-12.2-0.1-21-8.5-20.9-20.4c0.1-11.9,8.9-20.3,21.1-20.2l6.5,0l0,6.8l-6.5,0
				c-8.3,0-13.9,5.4-14,13.5c0,8,5.5,13.5,13.8,13.5l2.7,0l0.1-10.1l-6.5,0l0-6.8l13.4,0.1L687.5,621.4z"/>
			<path class="st1" d="M740.2,581.1l-0.2,40.6l-7,0l0.1-17.3l-16.3-0.1l-0.1,17.3l-7,0l0.2-40.6l7,0l-0.1,16.5l16.3,0.1l0.1-16.5
				L740.2,581.1z"/>
			<path class="st1" d="M760.5,601.4c0.1-11.8,9.5-21.1,21.2-21c11.7,0.1,21,9.4,21,21.2c-0.1,11.8-9.5,21.1-21.2,21
				C769.8,622.6,760.4,613.2,760.5,601.4z M795.5,601.6c0-8.1-6-14.4-13.9-14.4c-7.9,0-14,6.1-14,14.3s6,14.4,13.9,14.4
				C789.3,615.9,795.5,609.7,795.5,601.6z"/>
			<path class="st1" d="M823.8,608.8l0.1-27.3l7,0l-0.1,27.3c0,3.8,2.9,7.3,7.3,7.3c4.4,0,7.3-3.4,7.4-7.2l0.1-27.3l7,0l-0.1,27.3
				c0,7.9-5.6,14.1-14.4,14.1C829.3,623,823.8,616.8,823.8,608.8z"/>
			<path class="st1" d="M906.8,602.2c-0.1,11.8-8.9,20.2-21.1,20.1l-10.5-0.1l0.2-40.6l10.5,0.1
				C898.1,581.9,906.9,590.3,906.8,602.2z M899.7,602.2c0-8.1-5.5-13.5-13.8-13.6l-3.5,0l-0.1,27l3.5,0
				C894.1,615.6,899.7,610.2,899.7,602.2z"/>
		</g>
	</g>
	
		<rect x="778.1" y="555.9" transform="matrix(5.027353e-03 -1 1 5.027353e-03 207.8702 1348.6923)" class="st1" width="7.1" height="27.9"/>
</g>
<g>
	<g>
		<path d="M15.1,533.1c2.8,6,7.5,11.2,12.6,15.4c6,4.9,12.4,9,19.3,12.5c13.2,6.6,27.1,11.3,41.4,14.6c36,8.2,72.3,14.7,108.8,19.8
			c35.9,5,71.8,8.9,107.8,13.4c15.2,1.9,30.4,3.4,45.6,4.7c8.1,0.7,16.2,1.4,24.3,2.2c4,0.4,8,0.8,12,1.3c1.8,0.2,3.7,0.4,5.5,0.7
			c0.4,0,3.5,0.4,1.6,0.2c-1.9-0.2,0.3,0,0.6,0.1c0.5,0.1,1.1,0.2,1.6,0.2c6.8,1,13.6,2.1,20.3,3.8c3.8,0.9,7.5,2,11.1,3.3
			c1,0.3,1.9,0.7,2.9,1.1c0.4,0.2,0.8,0.3,1.3,0.5c0.4,0.2,1.6,0.9,0.3,0.1c-1.3-0.8-0.1-0.1,0.3,0.1c0.4,0.2,0.8,0.4,1.2,0.5
			c0.9,0.4,1.8,0.8,2.7,1.3c3.3,1.6,6.4,3.4,9.5,5.3c1.5,1,3,2,4.4,3c0.7,0.5,1.4,1,2,1.5c0.3,0.2,1.4,1.2,0.2,0.1
			c-1.3-1.1,0.1,0.1,0.4,0.4c5.9,4.7,11.3,9.9,16.4,15.3c2.8,3,5.5,6,8.3,9.1c3.6,4.1,11.2,4,14.8,0c4-4.4,3.9-10.4,0-14.8
			c-10.5-11.9-21.7-23.3-35-32C444.6,608.2,430,603,415,600c-30.7-6.1-62.3-6.9-93.3-10.3c-17.7-1.9-35.3-4.3-52.9-6.4
			c-17.2-2.1-34.5-4.1-51.7-6.3c-2-0.3-4-0.5-6-0.8c-0.5-0.1-1-0.1-1.5-0.2c-1.5-0.2,2,0.3,0.5,0.1c-1.3-0.2-2.5-0.3-3.8-0.5
			c-4.1-0.6-8.3-1.2-12.4-1.8c-8.6-1.3-17.3-2.6-25.9-4c-18.3-3-36.6-6.5-54.8-10.3c-15.4-3.3-30.8-6.4-45.5-12.2
			c-0.8-0.3-1.6-0.6-2.3-0.9c-0.4-0.2-1.7-0.7-0.2-0.1c1.7,0.7-0.3-0.1-0.5-0.2c-1.7-0.7-3.3-1.5-5-2.3c-3.3-1.6-6.4-3.3-9.5-5.1
			c-1.4-0.8-2.8-1.7-4.2-2.7c-0.7-0.5-1.3-0.9-2-1.4c-0.3-0.2-0.6-0.5-1-0.7c-1.4-1,0-0.2,0.5,0.4c-2.2-2.3-4.8-4.1-6.9-6.5
			c-0.2-0.3-0.5-0.5-0.7-0.8c-1.1-1.2,0.6,0.8,0.7,0.9c-0.4-0.6-0.9-1.2-1.3-1.9c-0.8-1.2-1.4-2.4-2-3.6c-2.3-5-9.9-6.6-14.4-3.8
			C13.7,522.1,12.7,527.8,15.1,533.1L15.1,533.1z"/>
	</g>
</g>
</svg>
