<?xml version="1.0" encoding="utf-8"?>
<!-- Generator: Adobe Illustrator 27.5.0, SVG Export Plug-In . SVG Version: 6.00 Build 0)  -->
<svg version="1.1" id="Livello_1" xmlns="http://www.w3.org/2000/svg" xmlns:xlink="http://www.w3.org/1999/xlink" x="0px" y="0px"
	 viewBox="0 0 1385.6 687.8" style="enable-background:new 0 0 1385.6 687.8;" xml:space="preserve">
<style type="text/css">
	.st0{stroke:#000000;stroke-width:5;stroke-miterlimit:10;}
	.st1{stroke:#000000;stroke-width:3;stroke-miterlimit:10;}
</style>
<path class="st0" d="M467.2,208.5c-17.4-10.9-19.3-27-16.2-44.9c2.6-14.5,9-27,18.4-38.3c11.5-13.9,22-28.7,34-42.1
	c12.4-13.8,30.8-23.4,50.3-14.2c20,9.4,39.1,20.3,57.1,33.1c12.8,9.1,25.1,18.9,38.2,27.5c15.9,10.5,32.4,20.1,48.8,29.9
	c3,1.8,6.7,2.3,10.1,3.4c10.7,3.3,19.6,9.2,25.4,18.9c4.3,7.3,10.5,11.3,18.1,14.8c9.4,4.4,17.9,10.7,26.9,16.1
	c5.8,3.5,11.5,7.4,17.7,9.9c12.8,5.3,23.6,13.5,34,22.3c12.5,10.6,26.3,18.2,42.6,21.6c7.5,1.6,14.7,5.4,21.3,9.5
	c15.7,9.7,32,17.8,49.6,23.4c5.9,1.9,11.9,4.1,17.1,7.3c11.9,7.4,25.2,10.6,38.2,15.1c30.6,10.5,62.3,13.4,94.2,16
	c43.3,3.6,86.8,6.3,129.2,16.9c13.3,3.3,26.4,7.6,39.4,12.1c19.9,6.9,36.2,19,50.3,34.6c10.3,11.4,21.2,22.3,32.4,32.8
	c13.8,13,25.2,27.6,32.2,45.2c9.9,25,5.2,48.3-10.8,69.3c-12,15.8-27.4,27.6-44.4,37.7c-34.6,20.5-71.9,33.9-110.4,44.3
	c-21.7,5.8-43.3,12.4-65.4,16.2c-29.2,5.1-58.8,8.6-88.4,11.5c-44.9,4.4-90,7.6-134.9,11.6c-18.2,1.6-36.3,4.9-54.6,6
	c-31,1.8-62.1,3.4-93.1,3.4c-39.5,0.1-79-0.9-118.5-2.5c-66.1-2.8-132.2-5.7-198.2-10c-70.1-4.6-140.1-7.2-210.3-8.4
	c-24.3-0.4-48.6,0.4-72.8-0.1c-28.3-0.6-56.2-4.6-83.8-11.8c-15.8-4.1-31.4-9-45.7-16.7c-10.1-5.4-19.3-12.6-28.4-19.5
	c-7.2-5.5-10.3-13.7-10.9-22.5c-0.9-13.2-0.6-26.4,2.7-39.3c3-11.6,8.4-21.8,19.5-27.9c0.8-0.4,1.5-1.8,1.4-2.8
	c-1-22.3,3.7-43.9,9-65.3c7.6-30.7,11.4-62,13.2-93.5c2.8-50,12.3-98.9,25.2-147.1c6.5-24.1,18-46.2,33.1-66.3
	c6.4-8.5,15.2-14,25.3-17.3c11.1-3.7,21.2-1.8,30.7,5c4.2,3.1,8.9,5.9,13.7,7.7c13.5,5.2,23.7,14,28.1,27.7
	c9.1,28.1,30,41.8,57,48.3c35.8,8.6,71.8,14.8,108.9,13.3c22.7-0.9,45.1-3.4,67.1-9.2C450.3,218.7,459.6,215.7,467.2,208.5z
	 M743.6,537.9c4.1-13.3,9.8-24.9,17.8-35.4c26-33.9,60.6-53.7,102.2-61.3c7.8-1.4,11.6-4.1,13.4-11.7c2.1-8.7,5.5-17.1,8.5-26.2
	c-2.2,0.2-4,0.5-5.7,0.4c-8.1-0.2-16.3,0.3-24.3-0.9c-20.2-3.2-37.9-12.9-55.1-23.6c-13.8-8.6-27.5-17.4-41.7-25.4
	c-53-29.9-106.1-59.4-159.2-89.1c-8.4-4.7-16.8-9.3-24.6-13.5c-5.7,4-10.6,8.1-16.1,11.3c-23,13.5-46.4,26.3-71.5,35.3
	c-25.3,9.1-51.3,16.2-77,24.1c-14.4,4.4-28.9,8.5-43.1,13.5c-5,1.7-9.6,5.2-13.7,8.7c-4.6,4-4.6,8.4-0.4,12.8
	c4.6,4.9,9.4,10.1,15.1,13.6c13.3,8.5,26.9,16.6,41,23.9c33.5,17.3,65.8,36.3,95.6,59.4c22.8,17.6,44,36.9,61.9,59.5
	c2.1,2.6,4,4.2,7.4,4.7c41.4,5.5,82.7,11.4,124,16.6C713.2,536.4,728.4,536.9,743.6,537.9z M52.4,472.6c-2.9,14.4-5.8,28.3-8.4,42.2
	c-0.8,4-0.9,8.2-0.8,12.3c0,7.6,2.9,13.7,10.3,17.1c11.3,5.1,22.2,11.2,33.8,15.3c33.1,11.7,68.2,15.2,102.2,23.2
	c8.7,2.1,17.9,2.5,26.7,4.1c30.9,5.3,62,6.9,93.3,6c12.9-0.4,25.8-0.2,38.6,0.1c26.9,0.7,53.9,1.6,80.8,2.4
	c40.8,1.1,81.7,1.7,122.5,3.4c38.6,1.6,77.1,4.9,115.7,6.6c90.2,4,180.2,1.1,270-8.5c62.1-6.7,123.9-15.5,185.1-28.2
	c46-9.6,91.4-21,135.2-38.1c30.4-11.9,59.6-26.2,85.1-47.1c4.1-3.3,7.9-6.9,12.3-10.7c-5.2-6-10-11.5-14.5-16.6
	c-7.7,4.7-14.6,9.3-21.8,13.3c-22.9,12.7-47.3,21.6-72,30c-37.1,12.7-75.4,20.2-113.6,28.4c-37.7,8-75.6,14.4-113.9,18
	c-26.2,2.4-52.5,4.7-78.8,6.2c-40.6,2.4-81.3,4.2-121.9,6.1c-9.6,0.4-19.3-0.1-28.9,0.4c-50.1,2.6-99.6-2.6-148.9-11.4
	c-31.5-5.6-63-11.1-94.5-16c-31.6-4.9-63.3-8.9-94.9-13.5c-47.9-6.9-95-18.3-143.4-22.1c-29.2-2.3-58.4-5.1-87.6-6.5
	c-34.6-1.6-69.2-1.5-103.8-3C94.6,485,72.7,482.4,52.4,472.6z M1364.6,499.2c-0.9,0.4-1.3,0.6-1.6,0.8c-9.9,7.5-19.4,15.6-29.8,22.3
	c-26.2,17-55.3,27.7-85,36.4c-39.4,11.5-79.3,21.3-119.9,28.5c-48,8.6-96.2,14.5-144.5,20.4c-34.4,4.1-68.9,7.2-103.4,10.4
	c-20.8,1.9-41.5,3.5-62.4,4.6c-15.6,0.8-31.3,0.8-47,1c-21.6,0.3-43.2,0.3-64.8,0.8c-47.9,1.1-95.5-2.4-143.2-5.7
	c-44.6-3.1-89.2-5.5-133.9-7.2c-55.9-2.1-111.8-5-167.8-3.9c-11.5,0.2-23-1.1-34.5-2.2c-12.2-1.2-24.3-2.9-36.9-4.4
	c6.3,12.9,12.6,25.4,18.7,38c1.9,3.9,4.4,5,8.7,5c39.6-0.1,79.3,0,118.9,0.2c10.5,0.1,21,0.6,31.5,1.2c38.1,2.2,76.2,4.6,114.4,6.7
	c22.6,1.3,45.2,2.2,67.8,3.2c27.5,1.1,55,2.2,82.5,3.1c11.4,0.4,22.8,0.1,34.2,0.6c46,2.1,92,4.2,138.1,2.7
	c36.9-1.2,73.8-3.8,110.7-6.2c18.3-1.2,36.5-3.5,54.8-4.8c45.7-3.2,91.3-6.8,136.4-14.9c31-5.5,61.6-13.2,92.1-21.1
	c43.5-11.2,86.2-24.8,123.8-50.5c8.9-6.1,17.6-12.7,25.2-20.2C1359.8,531.9,1364.2,516.5,1364.6,499.2z M766.8,538.3
	c1.2,0.2,1.8,0.4,2.4,0.4c45.6,1.4,91.2,1.6,136.6-2.7c30.6-2.9,61.1-6.8,91.6-11c33.4-4.7,66.7-9.8,99.9-15.5
	c45.5-7.9,90-20.3,134.6-32c28.6-7.5,57.1-15.1,82.3-31.4c3.1-2,6.2-3.9,9.7-6.1c-1.7-1.8-3.1-3.2-4.3-4.6c-5.7-6.4-11.2-13-17-19.3
	c-6.4-6.9-12.6-14-19.7-20.2c-7.1-6.2-16-9.9-24.9-13.4c-7.1,16.6-20.6,25-36.2,30.5c-20.6,7.3-41.9,9.4-63.5,6.6
	c-18.2-2.4-36.2-6-54.1-9.6c-18.3-3.7-34.6-0.2-49.3,11.2c-4.2,3.3-8.6,6.3-13,9.2c-17.5,11.5-36.3,19.8-57.3,20.8
	c-22.7,1.1-45.5,1-68.3,1.4c-5.2,0.1-10.4-0.5-15.5,0c-37.4,4.1-70.1,19.3-99.4,42.6C786.6,507,775.8,521.6,766.8,538.3z M349,480.7
	c0.4-0.4,0.9-0.7,1.3-1.1c-5.3-12-10.1-24.2-16.2-35.8c-14.8-28.3-35.2-51.6-63-68.2c-16.8-10.1-34.2-18.9-52.4-26
	c-34.8-13.6-65-33.6-88.9-62.8c-3.9-4.8-8.5-9.1-13.2-13.2c-12.6-10.8-19.4-11.3-33.4-2.4c-1.7,1.1-3.5,3.4-3.7,5.4
	c-3.4,24.7-6.9,49.5-9.8,74.3c-2.8,24.5-4.6,49.2-7.3,73.7c-1,8.6-3.4,17-5.3,26c3.9,1.3,7.6,3.1,11.4,3.8c16.1,3,32.2,6.2,48.4,8.3
	c31.7,4,63.7,5.2,95.6,5.8c35.5,0.7,71,2.8,106.2,7.8C328.9,477.7,338.9,479.2,349,480.7z M231.7,336.3c2.2,1,3.7,1.7,5.2,2.3
	c18,7.6,35.1,17,51.3,28c17.6,12,32.6,26.6,43.3,45.1c8.7,15.1,17.1,30.4,25,45.9c3.6,7.1,6.3,14.7,8.6,22.3c1,3.1,2.2,4.1,5.2,4.6
	c52.2,8.7,104.5,17.5,156.7,26.2c6.8,1.1,13.6,2,21.4,3.2c-1.5-2-2.3-3.2-3.3-4.2c-9.1-8.5-17.7-17.6-27.4-25.3
	c-29.1-23-61.3-41.4-92.8-60.7c-20.2-12.3-40-25.4-59.3-38.9c-8.9-6.2-16.7-14.1-24.3-21.9c-7.8-8-8.5-19-1.9-28
	c3.3-4.5,7.8-8.9,12.7-11.4c9-4.6,18.5-8.8,28.2-11.5c30.7-8.4,61.6-15.8,91.5-26.6c28.9-10.5,56.7-23,81.8-41c1-0.7,2-1.5,3.2-2.4
	c-1-0.6-1.6-1-2.2-1.4c-17-9-34.1-17.8-52.5-23.7c-4.1-1.3-8.1-3-11.9-4.9c-2.3-1.2-3.6-0.7-5.5,0.7c-8.5,6.2-16.8,12.7-25.7,18.3
	c-28.4,17.9-60.2,26.7-92.9,32c-25.4,4.1-50.1,9.4-72.8,22.4C273.3,297,254,309.7,238.1,327C235.7,329.6,234,333,231.7,336.3z
	 M504.2,196.9c20.2,4.3,37.7,11.7,54.7,20.5c16.3,8.4,32.3,17.5,48.4,26.1c41.7,22.2,83.3,44.4,122.8,70.3
	c25.4,16.6,51.2,32.5,77.1,48.3c15.8,9.6,32.1,18.3,49.9,24c12,3.8,24.1,4.9,35.4-1c27.1-14.3,55.4-16.8,84.9-10.4
	c13.3,2.9,26.7,5.3,40.5,3.9c6.6-0.7,12.9-2.2,18.2-6.4c4.9-3.8,5.9-7.7,3.4-13.3c-1.4-3.1-2.9-6.2-4.9-8.9
	c-1.1-1.5-3.4-3.1-5.2-3.1c-9.7,0.1-19.6-0.1-29.2,1.4c-27,4-53.7,3.5-79.9-4.8c-4.5-1.4-8.2-1.4-11.9,1.7c-1.6,1.4-3.9,2.2-6,2.8
	c-6.9,2.1-12.7-2-12.7-9.2c0-3.3-1.2-4.4-4.1-5.5c-14.7-5.8-29.3-11.9-44-17.7c-1.5-0.6-3.4-0.5-5-0.2c-4.3,1-8.5,2.6-12.8,3.4
	c-3.7,0.6-7.1-0.6-9.3-3.9c-2.2-3.3-1.8-6.7,0.1-10.1c0.5-0.9,0.9-1.8,1.4-2.7c-10.2-5.3-20.1-10.5-30-15.8c-2.6-1.4-4.8-1.2-7.5,0
	c-4,1.8-8.3,3.2-12.6,4.2c-3.7,0.8-7.2-0.4-9.4-3.6c-2.3-3.3-1.6-6.8,0.2-10.1c0.7-1.3,1.5-2.4,2.6-4.2
	c-12.3-6.5-24.2-12.9-36.3-19.1c-1-0.5-2.8,0.1-4.2,0.5c-4.3,1.2-8.4,2.8-12.7,3.7c-4,0.8-7.8-0.1-10.1-3.8
	c-2.3-3.8-1.3-7.4,1.2-10.7c0.5-0.7,1-1.4,1.6-2.4c-1.5-0.9-2.7-1.7-3.9-2.4c-10.3-5.9-20.6-11.6-30.8-17.7
	c-2.8-1.7-5.2-1.7-8.3-0.8c-5.4,1.5-10.9,3-16.4,3.2c-2.5,0.1-6.3-2.5-7.5-4.9c-1.1-2.2,0.1-5.9,1.1-8.6c0.6-1.8,2.6-3.1,4.2-4.8
	c-1-0.8-1.9-1.5-2.9-2.1c-13.1-8.1-26-16.4-39.3-24.1c-6.1-3.5-12.6-6.7-19.4-8.6c-4.9-1.4-10.6-1.6-15.6-0.4
	c-14.6,3.4-28.4,9.2-41.1,17.3C514.3,189.7,509.8,193,504.2,196.9z M706,180c-2.5-0.8-5.7-2.1-9.1-2.8c-15.7-3.2-29.5-10.1-42-20
	c-22.2-17.5-44.6-34.7-67.2-51.7c-12.9-9.7-26.6-18.2-41.8-23.9c-6.6-2.5-12.9-2.2-18.4,2.3c-5.9,4.7-12.3,9.1-17,14.8
	c-13.5,16.1-26.6,32.5-39.1,49.4c-12,16.2-8.5,36.5,8.4,50c2.1-2.5,4.3-5.1,6.5-7.6c9.7-10.8,21-19.6,33.5-26.8
	c14.4-8.3,29.6-14.1,46.7-13.1c13.3,0.7,25.6,4.8,37,11.2c17.6,9.8,34.9,19.9,52.5,29.8c1.6,0.9,4,1.6,5.7,1.1
	C676.6,188.5,691.4,184.2,706,180z M990.2,392.9c8.8,11.3,19.8,19.2,31.3,26.7c2.1,1.4,3.4,1.6,5.5,0.3c7.1-4.6,14.2-9.1,21.3-13.6
	c14.6-9.2,30.4-14,47.7-12.3c10.9,1.1,21.7,2.7,32.5,4.6c18.2,3.1,36.3,7.2,55,5.7c16-1.3,31.7-3.8,46.1-11.5
	c6.6-3.5,12.3-8,16.8-14.5c-1.7-0.6-3-1.2-4.4-1.6c-37.4-12.1-76.1-17-114.9-21.1c-19.4-2.1-38.8-4-58.2-6.3
	c-6.8-0.8-13.4-2.7-20.8-4.3c0.8,1.2,1,1.7,1.3,2.2c11.2,15.8,7.5,31.7-10.1,39.8c-6.7,3.1-14.3,4.8-21.7,5.6
	C1008.7,393.6,999.6,392.9,990.2,392.9z M285.6,272.3c0.4,0.1,0.1-0.1-0.3-0.1c-25.1-1.9-48.2-10.3-70.3-21.6
	c-8.5-4.3-17-9-23.1-16.7c-3.8-4.7-7.1-9.8-10.2-15c-8.5-13.8-10.7-29.5-13.5-45.1c-1.3-7.2-4-14.6-7.6-21
	c-4.7-8.3-12.2-10.2-21.5-7.9c-9.7,2.5-17,8.2-22.3,16.4c-6.9,10.6-12.2,21.9-14.3,34.6c-1.2,7.6-1.3,8.6,6.2,11.4
	c6.2,2.3,12.6,4.1,19,6c11.7,3.5,22.9,8,32.6,15.6c19.6,15.6,35.9,33.9,46.3,56.9c3.7,8.1,7.5,16.1,11.2,24.1c1.4,3,2.8,6.1,4.1,8.7
	C243.4,303,264.6,287.6,285.6,272.3z M85.3,253.9c17-8.8,30.5-3.1,42.6,7.3c6.4,5.5,12.2,11.7,17.6,18.1
	c17.9,20.8,39.8,36.1,64.4,47.8c1.1,0.5,2.2,0.8,3.8,1.3c-4.7-8-9-15.4-13.2-22.8c-4.3-7.6-8.1-15.5-12.6-23
	c-13-21.9-31-38.2-54.5-48.4c-12.4-5.4-26-7.9-37.4-17.4C92.4,229.5,89,241.2,85.3,253.9z M184.7,159.1c-0.2,0.2-0.4,0.4-0.7,0.6
	c1.9,11,3.8,22.1,5.9,33.1c3.1,16.5,11.5,30.2,25.5,39.1c24.2,15.3,50.8,24.4,79.7,26.1c9.3,0.5,18.8,1.6,27.9,0.5
	c17.3-2.2,34.4-5.6,51.6-8.8c8.6-1.6,17-3.9,25.5-5.9c-0.1-0.4-0.1-0.7-0.2-1.1c-2.5,0.2-5,0.5-7.5,0.6c-16.1,0.6-32.4,2.9-48.3,1.3
	c-26.7-2.6-53.3-7.2-79.8-11.8c-14.7-2.6-27.9-9.5-40.4-17.7c-11.7-7.7-20.5-17.8-25.9-30.8c-1.9-4.7-3.6-9.4-6-13.8
	C190,166.4,187.2,162.8,184.7,159.1z M898.4,435.8c20.8,0,42.7,0.3,64.6-0.1c10-0.2,20-1.6,30-2.6c1.5-0.1,2.9-0.7,5-1.2
	c-12.8-10.7-23-22.5-28.7-37.5c-1.8-4.8-4.3-5.6-8.5-4.9c-18.2,3.2-36.4,6.4-54.6,9.7c-1,0.2-2.4,1.7-2.6,2.7
	C901.7,413.5,900,425.1,898.4,435.8z M754.8,215.8c-11.4-3.8-20.4-9.2-27.8-17.2c-0.6-0.6-1.9-1-2.7-0.9
	c-13.2,1.7-25.8,5.4-38.2,10.9c0.5,0.7,0.7,1.1,1,1.3c9.3,5.8,18.5,11.6,27.9,17.2c1.2,0.7,3.4,0.5,4.8,0c8-2.7,15.8-5.6,23.8-8.3
	C746.9,217.6,750.3,217,754.8,215.8z M742.4,241.8c0,0.7-0.1,1.5-0.1,2.2c10.3,5.4,20.5,10.8,30.9,16c1.1,0.5,3-0.3,4.5-0.8
	c9.1-3.3,18.2-6.7,27.4-10c1.5-0.6,3.2-0.8,6-1.5c-4-1.8-6.9-3-9.6-4.3c-7.6-3.5-15.1-7.2-22.7-10.6c-1.1-0.5-2.6-0.9-3.8-0.6
	C764,235.4,753.2,238.6,742.4,241.8z M919.9,305.1c-6.9-3.6-14.6-7.6-22.3-11.5c-0.6-0.3-1.4-0.6-2.1-0.5
	c-12.4,0.4-23,5.9-33.9,11.5c11.1,5.4,22.1,10.3,33.3,14.9c1.1,0.5,2.9,0.2,3.9-0.4C905.9,314.5,912.9,309.7,919.9,305.1z
	 M867.3,278.9c-13.1-1.3-24.9-7.5-35.8-15.6c-0.8-0.6-2.4-0.9-3.3-0.6c-8.9,3.5-17.7,7.1-26.6,10.7c10.1,6.2,19.9,11.2,29.8,16
	c0.9,0.4,2.3,0.4,3.4,0C845.8,286,856.7,282.4,867.3,278.9z M995.8,334.1c-2.3-1-4.5-2.2-6.8-3c-8.7-3.1-17.7-5.6-26.2-9.3
	c-5.6-2.5-10.9-3.4-16.4-1c-5.4,2.3-10.6,5.1-15.8,7.7c0.2,0.5,0.4,0.9,0.5,1.4C952.4,334.1,973.9,335.9,995.8,334.1z"/>
<path d="M581,312.1c0,0,85.7,29,174.6,84.3C755.6,396.3,673.3,365.5,581,312.1z"/>
<g>
	<g>
		<g>
			<path class="st1" d="M590.2,374.9l-5.4-2.7c-6.8-3.4-9.5-10.5-6.2-17.2c3.3-6.7,10.6-8.9,17.4-5.6l3.6,1.8l-1.9,3.8l-3.6-1.8
				c-4.7-2.3-9.3-0.8-11.5,3.7c-2.2,4.5-0.6,9.1,4.1,11.4l1.5,0.7l2.8-5.7l-3.6-1.8l1.9-3.8l7.5,3.7L590.2,374.9z"/>
			<path class="st1" d="M630.9,366.7l-11.2,22.7l-3.9-1.9l4.8-9.7l-9.1-4.5l-4.8,9.7l-3.9-1.9l11.2-22.7l3.9,1.9l-4.6,9.3l9.1,4.5
				l4.6-9.3L630.9,366.7z"/>
			<path class="st1" d="M636.7,383.7c3.3-6.6,11.1-9.2,17.6-6c6.5,3.2,9.2,11.1,6,17.7c-3.3,6.6-11.1,9.2-17.6,6
				C636.1,398.1,633.4,390.3,636.7,383.7z M656.3,393.4c2.2-4.6,0.6-9.7-3.9-11.9c-4.4-2.2-9.5-0.4-11.8,4.2
				c-2.2,4.6-0.6,9.7,3.9,11.9C649,399.7,654.1,397.9,656.3,393.4z"/>
			<path class="st1" d="M670.3,405.2l7.6-15.3l3.9,1.9l-7.6,15.3c-1.1,2.1-0.4,4.9,2.1,6.1s5.1,0.1,6.1-2l7.6-15.3l3.9,1.9
				l-7.6,15.3c-2.2,4.5-7,6.4-11.9,4C669.5,414.6,668.1,409.6,670.3,405.2z"/>
			<path class="st1" d="M718.7,424.2c-3.3,6.6-10.6,8.9-17.4,5.5l-5.9-2.9l11.2-22.7l5.9,2.9C719.4,410.3,722,417.5,718.7,424.2z
				 M714.7,422.2c2.2-4.5,0.6-9.1-4.1-11.4l-2-1l-7.5,15.1l2,1C707.9,428.2,712.5,426.7,714.7,422.2z"/>
		</g>
	</g>
	<rect x="655" y="363" transform="matrix(0.4423 -0.8969 0.8969 0.4423 33.1357 796.7976)" class="st1" width="4.5" height="17.5"/>
</g>
</svg>
