<?xml version="1.0" encoding="utf-8"?>
<!-- Generator: Adobe Illustrator 27.5.0, SVG Export Plug-In . SVG Version: 6.00 Build 0)  -->
<svg version="1.1" id="Livello_1" xmlns="http://www.w3.org/2000/svg" xmlns:xlink="http://www.w3.org/1999/xlink" x="0px" y="0px"
	 viewBox="0 0 1385.6 833.6" style="enable-background:new 0 0 1385.6 833.6;" xml:space="preserve">
<style type="text/css">
	.st0{stroke:#000000;stroke-width:5;stroke-miterlimit:10;}
	.st1{stroke:#000000;stroke-width:3;stroke-miterlimit:10;}
</style>
<path class="st0" d="M881.7,796c-14.1,3.2-27.8,1.7-41.6,0.6c-6.5-0.5-13.1,0.9-19.7,0.9c-10.7,0.1-21.4,0.1-32-0.2
	c-2,0-4.7-0.8-5.7-2.2c-2.9-3.8-6.5-3.6-10.6-3.2c-5.1,0.4-10.2,0.5-15.3,0.3c-9.6-0.5-18.4-3.5-24.4-11.1
	c-8.1-10.2-18.7-16.5-30-22c-17.8-8.6-36.3-15.9-56.4-16.6c-18.7-0.7-37.3,1-54.1,10.2c-15,8.2-30,16.4-44.4,25.6
	c-12.9,8.3-26.5,13.1-41.8,12.7c-14.8-0.4-29.6-1.6-44.4-2.1c-26.3-0.9-52.6-2.2-78.9-2.2c-23.7,0-47.3-0.1-70.9-2.9
	c-15.9-1.9-32.2-2-48.3-1.4c-25.9,0.9-51.2-1.5-76.3-7.6c-22.8-5.5-46.1-9.3-68.9-15.1c-20.3-5.2-39.3-14.2-56.7-26
	c-3.3-2.2-6.8-4-10.4-5.7c-14.9-6.8-26.6-17.5-36.2-30.5c-7.7-10.5-10.1-22.8-10.9-35.3c-2.5-36.4,5.9-70.9,18.6-104.5
	c5.6-14.7,12.6-28.6,23.6-40.2c4.3-4.5,5.2-10.4,5.3-16.5c0.2-14,0.5-27.9,1-41.9c0.1-3.9,0.9-7.9,1.9-11.6
	c3.2-11.5,10.6-19,22.4-21.1c6.7-1.2,9.9-5,12.4-10.5c5.1-11.4,3.5-23.2,2.4-35c-0.9-9.4,0.1-18.4,5.3-26.5c5-7.7,10-15.5,15.4-23
	c8.4-11.8,13.4-24.9,15.5-39c3.3-23,14-43,25.7-62.6c9.1-15.1,15.1-30.9,15.4-48.8c0.1-5.6,1.2-11.1,1.9-16.6
	c1.2-9.2,4.7-17.7,11.1-24.3c3.7-3.8,9.2-5.9,14.6-9.3c-2.6-8.2-5.3-17.5-8.4-26.6c-5.1-14.9-10.6-29.7-15.7-44.7
	c-6.5-19.4,9.1-38.6,29.7-36.8c8.4,0.8,13.3,5.9,15.1,13.5c2.5,10.4,4.5,20.9,5.9,31.5c2.9,22.6,5.2,45.4,7.9,68
	c0.2,1.3,1.3,2.9,2.4,3.7c2,1.4,4.3,2.4,6.6,3.4c20,8.7,35.3,22.7,47,40.8c5.8,9,11.1,18.3,16.3,27.6c10.5,19.1,25.1,33.8,44.3,44.5
	c14.3,7.9,29.7,10.3,45.4,11.8c20.7,2,41.5,3.7,62.6,5.5c-0.9-13,7.1-20.9,16.7-28c5-3.7,10.1-7.3,15.2-11c3.7-2.7,4.9-6.3,4.1-10.8
	c-0.8-4.4-1.3-8.8-1.5-13.2c-0.3-8.7,2.7-16,9-22.1c2.7-2.6,5.1-5.6,7.1-8.8c11.6-18.6,29.2-26.3,50.9-22.3
	c16.9,3.1,32.2,10.2,46.8,19c7.9,4.7,15.8,9.5,23.6,14.3c14.3,8.9,28.8,17,44.9,22.3c11.3,3.7,21.4,9.9,30.7,17.5
	c3,2.4,6.7,4.3,10.3,5.5c20.2,6.4,39.3,14.7,57,26.6c7.7,5.2,17.1,7.5,25.3,12c10.2,5.5,19.9,12,29.9,17.9c3.6,2.1,7.4,4.4,11.5,5.5
	c19.3,5.1,37,13.1,52.6,26c5.2,4.3,12.5,6.5,19.1,8.9c14.1,5.1,28.1,10.5,39.1,21.3c1.4,1.4,3.7,2,5.8,2.5
	c16.8,4,31.9,11.1,44.8,22.8c1.1,1,2.2,2.2,3.5,2.7c13.9,6.1,22.4,18.4,33.4,28c14.6,12.6,32,19.2,50.9,23.5
	c25.4,5.8,50.5,1.2,75.7,0.4c19.7-0.6,39.4-2.4,59.2-2.6c42.4-0.5,81.7,11.1,117.5,33.5c31.9,19.9,44.6,49.5,40.5,86.7
	c-1.4,12.9-5.6,24.9-11.1,36.6c-22,46.5-56.4,81.5-99.4,108.9c-30.2,19.2-62,35.2-94.9,49.3c-16.5,7.1-32.9,14.3-49.3,21.4
	c-9.7,4.2-19.5,5.5-29.8,2c-2.2-0.7-5.2-0.1-7.5,0.9c-10,4.1-20,8.4-29.9,12.9c-13.6,6.1-27.8,10-42.6,11.7
	c-7.6,0.9-14.7-0.7-21.4-4.2c-1-0.6-2.8-0.7-3.8-0.2c-26.3,12.6-54.4,18.4-83.2,20.9c-4,0.4-8.3-0.1-12.2-1
	C885.7,808.3,882.7,804.6,881.7,796z M914.4,451.7c-18.5-10.1-37.1-12.6-55.9-12.8c-27.9-0.3-53.5-7.5-77-22.7
	c-21.7-14-43.6-27.7-65.4-41.5c-10-6.3-20.9-10-32.6-10c-16.9,0-33.9,0.7-50.8,1.5c-43.8,1.9-84.9-6.6-120.7-33.3
	c-10.9-8.1-20.7-17.7-31.1-26.6c-1.1-0.9-2.9-2.1-4-1.8c-13.3,3.9-26.6,8-40.1,12.1c6,7.5,9.9,16.4,9.8,26.7
	c-0.1,21.1-6.2,40.3-18.2,57.8c-16.6,24.2-39.8,33.4-67.9,28.8c-16-2.6-31.4-8.2-47.1-12.4c-1.8-0.5-3.6-1.1-6.4-2
	c3.9,5.3,7.1,9.7,10.3,14c9.7,13,21.6,23.5,36.3,30.5c8.1,3.9,16.3,7.8,24.8,11.1c29.8,11.4,59.8,22.2,89.6,33.7
	c30.4,11.7,57.5,28.7,78.8,53.5c7.4,8.6,14,18.4,18.8,28.7c3,6.5,6.3,8.7,12.9,9.7c51.4,7.6,102.5,17.3,152.6,31.4
	c14.5,4.1,29,8.5,42.8,12.6c16.4-24.2,32.6-48.2,48-71.1c-13.7-1.5-28-2.5-42-4.8c-7.3-1.2-14.5-4.4-21.1-7.7
	c-6.1-3.1-7.7-7.4-5.2-13.7c2.8-7.1,6.2-14.3,10.8-20.3c14.6-19,33.3-32.7,56.3-40c21.6-6.9,43.5-13,65.1-20
	C895,460.2,904,455.9,914.4,451.7z M56.9,534.1c-5.5,10.2-11.7,20.1-16.4,30.7c-15.7,35.6-15.1,72.5-7.6,109.8
	c2,10.1,7.4,18.3,16.1,23.9c10.5,6.8,21,13.5,31.7,19.9c33.9,20.1,71.2,29.8,109.7,35.1c18,2.5,36.3,3.3,54.6,4.5
	c31.8,2.1,63.7,4.7,95.5,5.4c29.8,0.6,59.6,1.4,89,5.9c28.2,4.3,56.4,7.6,85,5.1c5.1-0.4,10.7-0.1,15-2.3
	c8.9-4.7,16.9-10.9,25.6-16.6c-8.5-9.3-15.8-18.2-24.1-26.2c-20.9-20.1-42.8-39-66.4-55.9c-18.2-13-36.2-26.3-54.1-39.8
	c-26.8-20.1-54.7-38.2-84.8-53.1c-30.5-15.2-62.3-24-96.6-24.7c-33-0.6-66.1-2.5-99.1-4.7C105.3,549.5,80.7,546,56.9,534.1z
	 M1344.4,493.4c0,3.9-0.1,6.5,0,9.1c0.2,6.4,0.8,12.8,0.6,19.2c-0.6,21.1-9.3,37.7-28.1,48.2c-6.3,3.5-12.6,7.2-19.4,9.7
	c-36,13-73,22.1-111,26.9c-22,2.8-44.3,3.7-66.3,6.1c-17,1.8-33.8,5-50.8,6.8c-40.9,4.2-81.9,7.8-122.8,12c-22.6,2.3-45,6-65.9,15.8
	c-35.7,16.8-69.7,36.5-100.9,60.5c-10.1,7.7-19,17.3-27.1,27.1c-4.7,5.7-7.7,13.5-9.3,20.8c-3.1,14.4,6.6,22.9,21,19.9
	c5.9-1.3,11.9-2.6,17.9-2.9c2.9-0.1,7.6,1.5,8.4,3.6c2.4,5.9,6.8,5.7,11.6,6c17.9,1.2,35.4-2.6,53-4.3c11.1-1.1,22.2-1.5,33.4-1.6
	c4.8,0,9.4,2.8,9.8,8c0.5,5.2,3.5,6.2,7.4,6.7c3.1,0.4,6.2,0.5,9.3,0.3c16.9-1.2,32.8-6.5,48.5-12.6c7.3-2.8,14.7-5.8,22.3-7.8
	c3.7-0.9,8.5-0.8,11.8,0.8c7.2,3.5,14.5,4.5,22,2.9c15.3-3.3,28.9-10.7,42.2-18.7c5.1-3,10.1-6.2,15.4-8.8c6.9-3.5,14-3.6,20.5,1.2
	c3.6,2.7,7.6,3.2,11.7,2.1c12.3-3.6,25-6.3,36.6-11.4c20.3-8.8,39.9-19.4,60-28.8c19.9-9.3,38.7-20.3,56.8-32.5
	c25-16.8,48.1-35.7,66.2-60c6.3-8.4,12.1-17.2,17.8-26c13.1-20.4,14-42.8,11.5-66C1357.3,513.6,1352.7,503.7,1344.4,493.4z
	 M795.5,648.5c4.9,2.1,10.2,3.9,15.1,6.5c3.8,2,6.8,1.7,10.5-0.5c31.8-18.3,64.9-34,101.5-39.5c30.9-4.7,62-7.6,93.2-10.3
	c28.8-2.6,57.8-3.5,86.7-6c24.1-2.1,48-6,72.1-7.9c39.4-3.1,77.2-12.7,114.1-26c19.6-7.1,31.7-21,31.9-43.4
	c0.1-13.9,3.4-27.3,12.2-39.4c-22.6-11.9-45.9-21.3-70.6-28c-3.5,12.6-12.1,19.7-22.8,23.9c-8.7,3.4-17.7,6.8-26.8,8.1
	c-37.4,5.3-74.9,10.8-112.5,14.4c-27.4,2.7-51.9,10.1-71.3,30.4c-0.8,0.8-1.7,1.5-2.6,2.3c-11.7,9.8-23,20.2-35.4,29.2
	c-11.3,8.2-26.4,5.5-35-5.7c-3.7-4.8-6.1-10.8-8.5-16.5c-2.1-5-3.2-10.4-5.2-15.4c-4.7-11.8-11.1-15.2-22.9-10.4
	c-8.4,3.4-16.9,7.8-23.8,13.6c-15.3,12.7-29.3,26.7-41.9,42.4C833,595.5,812.8,620.7,795.5,648.5z M429.3,344.5
	c0.2-15.1-4.8-23.1-17.6-26.9c-10.7-3.2-21.7-5.2-32.6-7.7c-19.6-4.4-39-9.9-58.7-13c-23.2-3.7-41-15.4-54.3-33.6
	c-10.4-14.2-18.8-30-27.6-45.4c-7.8-13.5-14.4-27.7-22.4-41.1c-3-5-7.9-9.3-12.9-12.4c-6.5-4-11.6-0.7-11.6,6.8
	c0,10.8-0.5,21.6-5,31.4c-6.2,13.6-13.2,26.8-19.8,40.2c-6.5,13.1-15.1,25.5-19.2,39.3c-8.5,28.7-19.4,55.8-36.4,80.5
	c-2,2.9-3.4,6.4-4.2,9.9c-0.4,1.5,0.9,4.6,2.2,5c6.4,2.3,13.1,5.7,19.6,5.5c19.5-0.5,39.2-1.4,58.5-4.3c32.3-4.7,63-1.1,93.4,10.6
	c22.2,8.5,45.1,15.3,67.9,22.1c16.4,4.8,32.9,2.5,46.8-7.1C416.7,389.8,427.9,368.7,429.3,344.5z M491.3,298.3c3.8,3,7.5,5.8,11,8.7
	c31.6,26.1,67.6,40.9,108.8,42.1c18.7,0.5,37.5,0.4,56.3,0.8c20.9,0.4,40.5,5.6,58.8,16.1c21.4,12.3,43.2,23.9,64.5,36.2
	c19,11,39.4,17,61.2,18.8c23.1,1.9,45.3,7.3,66.7,16.6c9.1,4,18.8,6.7,28.4,9.7c8.5,2.6,17.1,4.9,25.7,6.9c11.7,2.6,23.4,5.5,35.2,7
	c14,1.8,27.3-2.9,40.5-7.1c7-2.2,13.9-4.4,20.2-6.3c-6.6-3.1-13.6-6-20.1-9.6c-25.5-13.9-50.3-29.2-78.2-38.3
	c-3.5-1.2-5.9-1.4-8.6,1.5c-2.6,2.7-5.7,5-8.9,7c-6.2,3.9-11.9,3.7-16,0c-4.2-3.8-4.6-9.6-1-16.4c0.9-1.7,2-3.4,3-5.2
	c-11.2-5.4-22.3-10.9-33.4-16c-1.2-0.5-3.4,0.4-4.7,1.2c-4.7,3-9,6.6-14,9.2c-5,2.6-10,1.4-13.1-2.2c-3.1-3.6-3.4-8.4-0.3-13.3
	c1.8-2.9,4.1-5.5,6.5-8.7c-12-6-23.7-11.9-35.5-17.6c-1.1-0.5-3.4,0.5-4.6,1.4c-5.2,4.3-10.2,8.8-15.4,13.2
	c-1.9,1.6-3.8,3.2-5.9,4.5c-6,3.8-12.2,3.5-16.4-0.6c-4.1-3.9-4.8-9.9-1.4-15.9c2.2-3.8,5-7.3,7.7-10.8c1.7-2.1,3.6-4.1,5.8-6.5
	c-8.3-3.5-16.5-5.9-23.6-10.2c-10.3-6.3-18.1-5-25.6,4.4c-2.8,3.5-6.8,6.2-10.8,8.5c-5,3-10.4,2.1-14.2-1.3c-3.8-3.4-5.1-8.7-2.8-14
	c1.4-3.3,3.5-6.3,5.6-9.3c1.5-2.1,3.3-4,5.3-6.4c-3.5-1.6-6.6-3.1-9.7-4.4c-5.4-2.3-11.2-6.9-16.2-6.1c-5,0.8-9.1,7-13.6,10.8
	c-4.4,3.7-8.7,7.6-13.5,10.7c-6,3.9-12,3.5-16.5-0.3c-4.5-3.9-5.8-10.2-2.7-16.7c2-4.1,4.6-7.9,7.4-11.6c2.1-2.8,4.7-5.3,7.4-8.2
	c-10.2-4.7-19.9-9.2-29.6-13.5c-11.2-5-11.2-4.9-19.3,3.9c-2.9,3.1-5.9,6.2-9,9.2c-2,1.9-4.2,3.7-6.6,5.2
	c-5.4,3.3-11.1,3.1-15.3-0.2c-4.3-3.4-6-9.1-3.5-15.2c1.7-4.2,4.3-8.1,6.6-12.1c0.9-1.5,2.1-2.8,3.5-4.8c-8.2-1.4-15.7-3.1-23-0.1
	c-9.4,3.9-18.8,7.9-27.7,12.7c-15.3,8.3-30.2,17.4-45.3,26C511.6,287.4,501.7,292.6,491.3,298.3z M103,431.9
	c1.4,1.2,2.5,2.3,3.8,3.3c11.2,8.9,22,18.5,33.8,26.5c35.8,24.2,72,47.8,108.1,71.6c1.4,0.9,3.4,1.1,5.1,1.5
	c12.9,3.1,26,5.8,38.8,9.3c26.9,7.3,49.6,23.2,73.8,36.1c3.8,2,7.4,3,11.7,2.6c48.4-4.7,96.6-0.6,144.7,4.6
	c4.6,0.5,9.1,1.1,14.6,1.7c-13-19-27.9-34.5-47-45.1c-12.8-7.1-25.9-13.6-39.4-19.3c-30.5-12.8-61.3-24.7-91.9-37.4
	c-9.3-3.8-18.3-8.3-27.1-13.1c-26.1-14.4-43.3-35.9-49.5-65.4c-0.3-1.3-1.7-2.8-3-3.2c-29.2-10.8-59-16.3-90.4-11.8
	c-19.2,2.8-38.6,4.8-58,2.5c-6.8-0.8-13.5-2.9-19.9-4.3C111.2,405.7,110.6,419.3,103,431.9z M799.2,667.7
	c-65.6-31.9-361.1-82.8-403.7-69.7c0.7,0.6,1.3,1.2,1.9,1.7c31.9,24.8,64.3,49.1,95.7,74.7c17.8,14.5,34.5,30.5,50.9,46.6
	c8.1,7.9,14.5,17.7,22,27.1c53.3-30.4,106.1-28.1,156,7.7c2.4-7.6,3.8-15.2,7.1-22c3.3-6.7,8-12.8,12.9-18.6
	c12.1-14.3,26.4-26.1,41.7-36.8C788.7,675.1,793.6,671.6,799.2,667.7z M768,545.7c1.7,0.3,2.5,0.5,3.3,0.6
	c20.2,2.6,40.4,5.3,60.7,7.6c1.8,0.2,4.4-1,5.7-2.3c11.9-11.8,23.2-24.3,35.5-35.6c12.2-11.2,25.9-20.4,42.4-24.3
	c19.3-4.6,35.6,2.9,44.5,20.5c2.6,5.1,4.2,10.7,6,16.1c1.4,4.2,2,8.7,3.5,12.8c4.8,13.1,6.2,11.5,14.8,5.3c11-8,21.7-16.7,31-26.6
	c19.3-20.4,42.6-31,70.3-33.9c35.5-3.7,71-7.8,106.3-12.9c13.9-2,27.4-6.7,40.9-10.7c5.6-1.7,10.3-5.4,14.5-11.2
	c-6.8-0.7-12.7-1.7-18.5-1.7c-43.1-0.4-86.2-0.5-129.3-0.7c-5.6,0-11.5-0.5-15.5,4.9c-0.7,1-2.2,1.5-3.4,2
	c-11.3,4.8-22.6,9.7-34.1,14.2c-23.9,9.5-47.7,8.8-71.8,0c-9.2-3.4-18.9-5.5-28.3-8.3c-5.7-1.7-10.5-1.1-15.8,2.6
	c-6,4.1-13.4,6-20.1,9.2c-15.3,7.3-31.2,13.1-47.8,16.9c-17.8,4.1-35.3,9.2-51.7,17.7C793.8,516.8,779.7,529.3,768,545.7z
	 M648.8,216.8c-2.3-1.3-4.2-2.6-6.2-3.6c-9.9-5.1-19.9-10.1-29.8-15.3c-10-5.3-19.6-11.7-30-16c-9.7-4.1-20.1-7.2-30.6-8.9
	c-11.2-1.8-22,1.2-30.3,9.6c-4.1,4.2-7.7,9-11.7,13.3c-3.5,3.7-5.2,8-4.5,13c0.6,5.1,1.4,10.1,2,15.2c1.2,9.8-2,17.9-9.7,24
	c-5,4-10.4,7.5-15.5,11.4c-11.7,8.8-12.1,12.4-2.7,23.8c0.1,0.1,0.3,0.1,1.3,0.6c8.3-4.1,17.3-8,25.9-12.9
	c17.7-10.1,35-21,52.8-30.8c9.3-5.1,19.3-9.2,29.4-12.4c12.7-4,25.8-1.4,38.6,0.8c1.8,0.3,4.1,0.3,5.5-0.7
	C638.4,224.5,643.2,220.8,648.8,216.8z M210,529.8c-10-5.7-20.2-10.9-29.8-17.1c-31.8-20.3-64.7-39.4-87.8-70.8
	c-3.1,1.2-6.2,2.6-9.5,3.5c-5.7,1.6-9.2,5.3-10,11c-1,6.8-1.7,13.7-2.2,20.5c-0.9,12.1-1.7,24.2-2.4,36.3c-0.1,1.4,1.2,3.8,2.3,4.2
	c7.9,2.6,15.9,5.5,24.1,7C132.8,531.7,171.5,527.8,210,529.8z M230.9,153.9c-2.9,3.5-2.9,6.6,0.5,9.7c1.6,1.4,2.8,3.3,3.8,5.1
	c7.5,14.4,15,28.8,22.4,43.3c9,17.8,16.6,36.5,30.8,51.3c6.8,7.1,14.3,12.7,23.7,15.2c10.5,2.8,21.1,5.1,31.7,7.1
	c19.5,3.7,39.1,6.9,58.6,10.7c7.4,1.5,14.5,3.7,22.2,2.1c4.5-0.9,9.2-1.1,13.6-2.1c8.8-1.9,17.4-4.1,26.2-6.2
	c0.2-0.6,0.3-1.3,0.5-1.9c-3-2.1-5.8-5.8-8.9-6c-22-1.5-44-1.5-65.9-3.6c-18.3-1.7-36.2-5.9-52.7-15.1c-23.4-13-40.8-31.7-54.2-54.6
	c-5.2-8.9-10.7-17.7-16.9-26C257,170.4,245.2,160.5,230.9,153.9z M717.6,254c0.2-0.4,0.3-0.8,0.5-1.2c-17.8-2.5-28.6-17.6-43-23.3
	c-4.2,3.9-7.9,7.3-11.6,10.7c9.4,4.9,19.5,9.7,29.1,15.4c7.4,4.4,14.3,5.8,21.5,0.1C715.1,255,716.4,254.6,717.6,254z M915.8,360.3
	c9.9,4.4,19.1,8.5,28.2,12.6c7.4,3.3,10.7,2.5,16.7-4.2c-9.9-1.5-18.4-5.2-25.4-12.3c-1.6-1.7-4.2-2.5-6.5-3.4
	c-0.9-0.4-2.4-0.5-3.1,0C922.6,355.1,919.7,357.4,915.8,360.3z M789.5,299.1c11.5,4.7,22.3,8.7,32.6,13.5c4.9,2.3,8.2,1.3,10.9-1.3
	c-6.5-4.6-12.9-9.2-19.4-13.7c-2.8-2-5.5-4.1-8.5-5.9c-0.9-0.6-2.7-1-3.5-0.5C797.8,293.5,794.1,296.1,789.5,299.1z M750.5,266
	c-5.3,3.4-9.7,6.4-15,9.8c8.3,3.7,15.7,7.1,23.2,10.3c0.9,0.4,2.3,0.2,3.2-0.3c3.7-2,7.4-4.3,11.1-6.5
	C765.3,274.8,757.7,270.3,750.5,266z M856.3,328.6c10.4,5.5,20.6,10.5,30.3,16.1c4.7,2.7,8.1,2.4,11-0.6
	c-10.8-7.4-21.8-14.8-32.7-22.3C862,324.1,859.3,326.2,856.3,328.6z M1013.9,402.9c0.2-0.4,0.4-0.7,0.7-1.1
	c-3.2-2.1-6.5-4.2-9.7-6.4c-4.7-3.2-9.7-6.1-13.9-9.8c-6-5.2-6.8-5.4-12.4,1.7C990.4,392.5,1002.1,397.7,1013.9,402.9z"/>
<path d="M577.6,421.4c0,0,87.3,23.9,179.2,73.9C756.8,495.2,672.9,469.3,577.6,421.4z"/>
<g>
	<g>
		<g>
			<path class="st1" d="M590.5,483.6l-5.5-2.3c-7-3-10.1-9.9-7.2-16.8c2.9-6.8,10-9.5,17-6.6l3.7,1.6l-1.6,3.9l-3.7-1.6
				c-4.8-2-9.3-0.2-11.3,4.4c-1.9,4.6-0.1,9.1,4.7,11.1l1.6,0.7l2.5-5.8l-3.7-1.6l1.6-3.9l7.7,3.3L590.5,483.6z"/>
			<path class="st1" d="M630.6,473l-9.9,23.4l-4-1.7l4.2-9.9l-9.4-4l-4.2,9.9l-4-1.7l9.9-23.4l4,1.7l-4,9.5l9.4,4l4-9.5L630.6,473z"
				/>
			<path class="st1" d="M637.5,489.6c2.9-6.8,10.5-9.9,17.3-7c6.7,2.8,9.9,10.5,7,17.3s-10.5,9.9-17.3,7
				C637.7,504,634.6,496.4,637.5,489.6z M657.6,498.1c2-4.7,0-9.7-4.6-11.6c-4.5-1.9-9.6,0.2-11.5,4.9c-2,4.7,0,9.7,4.6,11.6
				C650.6,504.9,655.6,502.8,657.6,498.1z"/>
			<path class="st1" d="M672.2,509.1l6.6-15.7l4,1.7l-6.6,15.7c-0.9,2.2-0.1,4.9,2.5,6c2.5,1.1,5-0.2,6-2.4l6.6-15.7l4,1.7
				l-6.6,15.7c-1.9,4.6-6.7,6.8-11.7,4.7C672,518.6,670.3,513.6,672.2,509.1z"/>
			<path class="st1" d="M721.7,525.2c-2.9,6.8-10,9.5-17,6.6l-6-2.5l9.9-23.4l6,2.5C721.5,511.3,724.6,518.3,721.7,525.2z
				 M717.6,523.5c2-4.6,0.1-9.1-4.7-11.2l-2-0.8l-6.6,15.5l2,0.8C711.1,529.9,715.7,528.1,717.6,523.5z"/>
		</g>
	</g>
	
		<rect x="655" y="467.8" transform="matrix(0.3888 -0.9213 0.9213 0.3888 -37.289 896.7561)" class="st1" width="4.5" height="17.5"/>
</g>
</svg>
